<mxfile host="app.diagrams.net" modified="2022-11-21T02:55:50.290Z" agent="5.0 (Windows NT 10.0; Win64; x64) AppleWebKit/537.36 (KHTML, like Gecko) Chrome/106.0.0.0 Safari/537.36" etag="ufFyWjSXVrhbnVQ3nH_k" version="20.5.3" type="github">
  <diagram id="CAS6bydb_8zD7n3OPi8x" name="Page-1">
    <mxGraphModel dx="4957" dy="2467" grid="1" gridSize="10" guides="1" tooltips="1" connect="1" arrows="1" fold="1" page="1" pageScale="1" pageWidth="850" pageHeight="1100" math="0" shadow="0">
      <root>
        <mxCell id="0" />
        <mxCell id="1" parent="0" />
        <mxCell id="PqH4sLdSHneE05-yX5JM-67" value="&lt;font style=&quot;font-size: 28px;&quot;&gt;ir/module.py&lt;/font&gt;" style="rounded=0;whiteSpace=wrap;html=1;labelBackgroundColor=#FFFFFF;fontSize=18;fillColor=#d5e8d4;strokeColor=#82b366;verticalAlign=top;align=left;" vertex="1" parent="1">
          <mxGeometry x="-400" y="-220" width="330" height="480" as="geometry" />
        </mxCell>
        <mxCell id="PqH4sLdSHneE05-yX5JM-121" value="runtime/object" style="rounded=0;whiteSpace=wrap;html=1;labelBackgroundColor=#FFFFFF;fontSize=32;fillColor=#b0e3e6;strokeColor=#0e8088;align=left;verticalAlign=top;" vertex="1" parent="1">
          <mxGeometry x="-840" y="-830" width="610" height="360" as="geometry" />
        </mxCell>
        <mxCell id="PqH4sLdSHneE05-yX5JM-118" value="relay/relay.py:&#xa;&#xa;var()const()bind()" style="group;fillColor=#fff2cc;strokeColor=#d6b656;align=left;container=0;fontSize=28;" vertex="1" connectable="0" parent="1">
          <mxGeometry x="-525" y="1150" width="1175" height="680" as="geometry" />
        </mxCell>
        <mxCell id="PqH4sLdSHneE05-yX5JM-23" value="&lt;font style=&quot;font-size: 28px;&quot;&gt;relay/base.py&lt;/font&gt;" style="rounded=0;whiteSpace=wrap;html=1;align=left;verticalAlign=top;fillColor=#fff2cc;strokeColor=#d6b656;" vertex="1" parent="1">
          <mxGeometry x="-968" y="1151" width="440" height="679" as="geometry" />
        </mxCell>
        <mxCell id="VOFbCw_IlXWwH5Kaiug8-229" value="&lt;span style=&quot;&quot;&gt;ir/base.py:&lt;/span&gt;&lt;br style=&quot;&quot;&gt;&lt;ul style=&quot;font-size: 18px;&quot;&gt;&lt;li&gt;&lt;b&gt;load_json&lt;/b&gt;&lt;/li&gt;&lt;li&gt;&lt;b&gt;save_json&lt;/b&gt;&lt;/li&gt;&lt;li&gt;&lt;div style=&quot;font-family: &amp;quot;Droid Sans Mono&amp;quot;, &amp;quot;monospace&amp;quot;, monospace; line-height: 19px;&quot;&gt;&lt;b&gt;structural_equal&lt;/b&gt;&lt;/div&gt;&lt;/li&gt;&lt;li&gt;&lt;div style=&quot;font-family: &amp;quot;Droid Sans Mono&amp;quot;, &amp;quot;monospace&amp;quot;, monospace; line-height: 19px;&quot;&gt;&lt;b&gt;get_first_structural_mismatch&lt;/b&gt;&lt;/div&gt;&lt;/li&gt;&lt;li&gt;&lt;div style=&quot;font-family: &amp;quot;Droid Sans Mono&amp;quot;, &amp;quot;monospace&amp;quot;, monospace; line-height: 19px;&quot;&gt;&lt;b&gt;assert_structural_equal&lt;/b&gt;&lt;/div&gt;&lt;/li&gt;&lt;li&gt;&lt;div style=&quot;font-family: &amp;quot;Droid Sans Mono&amp;quot;, &amp;quot;monospace&amp;quot;, monospace; line-height: 19px;&quot;&gt;&lt;b&gt;structural_hash&lt;/b&gt;&lt;/div&gt;&lt;/li&gt;&lt;/ul&gt;" style="rounded=0;whiteSpace=wrap;html=1;labelBackgroundColor=#FFFFFF;fontSize=30;fillColor=#d5e8d4;strokeColor=#82b366;align=left;verticalAlign=top;" parent="1" vertex="1">
          <mxGeometry x="-1550" y="-220" width="1150" height="490" as="geometry" />
        </mxCell>
        <mxCell id="VOFbCw_IlXWwH5Kaiug8-197" value="&lt;span style=&quot;background-color: rgb(255, 255, 255);&quot;&gt;ir/expr.py&lt;/span&gt;" style="rounded=0;whiteSpace=wrap;html=1;labelBackgroundColor=#67AB9F;fontSize=30;fillColor=#d5e8d4;strokeColor=#82b366;align=left;verticalAlign=top;" parent="1" vertex="1">
          <mxGeometry x="-210" y="260" width="920" height="550" as="geometry" />
        </mxCell>
        <mxCell id="VOFbCw_IlXWwH5Kaiug8-108" value="&lt;span style=&quot;font-size: 30px; text-align: center;&quot;&gt;module: ir/type.py&lt;/span&gt;" style="rounded=0;whiteSpace=wrap;html=1;fontSize=8;align=left;fillColor=#d5e8d4;strokeColor=none;verticalAlign=top;labelBackgroundColor=default;" parent="1" vertex="1">
          <mxGeometry x="-1550" y="260" width="1340" height="760" as="geometry" />
        </mxCell>
        <mxCell id="VOFbCw_IlXWwH5Kaiug8-6" value="object" style="swimlane;fontStyle=1;align=center;verticalAlign=top;childLayout=stackLayout;horizontal=1;startSize=26;horizontalStack=0;resizeParent=1;resizeParentMax=0;resizeLast=0;collapsible=1;marginBottom=0;" parent="1" vertex="1">
          <mxGeometry x="-630" y="-710" width="160" height="86" as="geometry">
            <mxRectangle x="220" y="-120" width="80" height="30" as="alternateBounds" />
          </mxGeometry>
        </mxCell>
        <mxCell id="VOFbCw_IlXWwH5Kaiug8-7" value="+ field: type" style="text;strokeColor=none;fillColor=none;align=left;verticalAlign=top;spacingLeft=4;spacingRight=4;overflow=hidden;rotatable=0;points=[[0,0.5],[1,0.5]];portConstraint=eastwest;" parent="VOFbCw_IlXWwH5Kaiug8-6" vertex="1">
          <mxGeometry y="26" width="160" height="26" as="geometry" />
        </mxCell>
        <mxCell id="VOFbCw_IlXWwH5Kaiug8-8" value="" style="line;strokeWidth=1;fillColor=none;align=left;verticalAlign=middle;spacingTop=-1;spacingLeft=3;spacingRight=3;rotatable=0;labelPosition=right;points=[];portConstraint=eastwest;strokeColor=inherit;" parent="VOFbCw_IlXWwH5Kaiug8-6" vertex="1">
          <mxGeometry y="52" width="160" height="8" as="geometry" />
        </mxCell>
        <mxCell id="VOFbCw_IlXWwH5Kaiug8-9" value="+ method(type): type" style="text;strokeColor=none;fillColor=none;align=left;verticalAlign=top;spacingLeft=4;spacingRight=4;overflow=hidden;rotatable=0;points=[[0,0.5],[1,0.5]];portConstraint=eastwest;" parent="VOFbCw_IlXWwH5Kaiug8-6" vertex="1">
          <mxGeometry y="60" width="160" height="26" as="geometry" />
        </mxCell>
        <mxCell id="VOFbCw_IlXWwH5Kaiug8-10" value="Node" style="swimlane;fontStyle=1;align=center;verticalAlign=top;childLayout=stackLayout;horizontal=1;startSize=26;horizontalStack=0;resizeParent=1;resizeParentMax=0;resizeLast=0;collapsible=1;marginBottom=0;fillColor=#d5e8d4;strokeColor=#82b366;" parent="1" vertex="1">
          <mxGeometry x="-600" y="-190" width="160" height="86" as="geometry" />
        </mxCell>
        <mxCell id="VOFbCw_IlXWwH5Kaiug8-11" value="+ field: type" style="text;strokeColor=#82b366;fillColor=#d5e8d4;align=left;verticalAlign=top;spacingLeft=4;spacingRight=4;overflow=hidden;rotatable=0;points=[[0,0.5],[1,0.5]];portConstraint=eastwest;" parent="VOFbCw_IlXWwH5Kaiug8-10" vertex="1">
          <mxGeometry y="26" width="160" height="26" as="geometry" />
        </mxCell>
        <mxCell id="VOFbCw_IlXWwH5Kaiug8-12" value="" style="line;strokeWidth=1;fillColor=#d5e8d4;align=left;verticalAlign=middle;spacingTop=-1;spacingLeft=3;spacingRight=3;rotatable=0;labelPosition=right;points=[];portConstraint=eastwest;strokeColor=#82b366;" parent="VOFbCw_IlXWwH5Kaiug8-10" vertex="1">
          <mxGeometry y="52" width="160" height="8" as="geometry" />
        </mxCell>
        <mxCell id="VOFbCw_IlXWwH5Kaiug8-13" value="+ method(type): type" style="text;strokeColor=#82b366;fillColor=#d5e8d4;align=left;verticalAlign=top;spacingLeft=4;spacingRight=4;overflow=hidden;rotatable=0;points=[[0,0.5],[1,0.5]];portConstraint=eastwest;" parent="VOFbCw_IlXWwH5Kaiug8-10" vertex="1">
          <mxGeometry y="60" width="160" height="26" as="geometry" />
        </mxCell>
        <mxCell id="VOFbCw_IlXWwH5Kaiug8-17" value="Extends" style="endArrow=blockThin;endSize=16;endFill=1;html=1;rounded=0;exitX=0.5;exitY=0;exitDx=0;exitDy=0;" parent="1" source="VOFbCw_IlXWwH5Kaiug8-10" target="VOFbCw_IlXWwH5Kaiug8-9" edge="1">
          <mxGeometry width="160" relative="1" as="geometry">
            <mxPoint x="350" y="410" as="sourcePoint" />
            <mxPoint x="510" y="410" as="targetPoint" />
          </mxGeometry>
        </mxCell>
        <mxCell id="VOFbCw_IlXWwH5Kaiug8-18" value="Type" style="swimlane;fontStyle=1;align=center;verticalAlign=top;childLayout=stackLayout;horizontal=1;startSize=26;horizontalStack=0;resizeParent=1;resizeParentMax=0;resizeLast=0;collapsible=1;marginBottom=0;" parent="1" vertex="1">
          <mxGeometry x="-990" y="386" width="160" height="86" as="geometry" />
        </mxCell>
        <mxCell id="VOFbCw_IlXWwH5Kaiug8-19" value="+ field: type" style="text;strokeColor=none;fillColor=none;align=left;verticalAlign=top;spacingLeft=4;spacingRight=4;overflow=hidden;rotatable=0;points=[[0,0.5],[1,0.5]];portConstraint=eastwest;" parent="VOFbCw_IlXWwH5Kaiug8-18" vertex="1">
          <mxGeometry y="26" width="160" height="26" as="geometry" />
        </mxCell>
        <mxCell id="VOFbCw_IlXWwH5Kaiug8-20" value="" style="line;strokeWidth=1;fillColor=none;align=left;verticalAlign=middle;spacingTop=-1;spacingLeft=3;spacingRight=3;rotatable=0;labelPosition=right;points=[];portConstraint=eastwest;strokeColor=inherit;" parent="VOFbCw_IlXWwH5Kaiug8-18" vertex="1">
          <mxGeometry y="52" width="160" height="8" as="geometry" />
        </mxCell>
        <mxCell id="VOFbCw_IlXWwH5Kaiug8-21" value="+ method(type): type" style="text;strokeColor=none;fillColor=none;align=left;verticalAlign=top;spacingLeft=4;spacingRight=4;overflow=hidden;rotatable=0;points=[[0,0.5],[1,0.5]];portConstraint=eastwest;" parent="VOFbCw_IlXWwH5Kaiug8-18" vertex="1">
          <mxGeometry y="60" width="160" height="26" as="geometry" />
        </mxCell>
        <mxCell id="VOFbCw_IlXWwH5Kaiug8-22" value="Extends" style="endArrow=block;endSize=16;endFill=0;html=1;rounded=0;entryX=0.531;entryY=1.077;entryDx=0;entryDy=0;entryPerimeter=0;exitX=0.5;exitY=0;exitDx=0;exitDy=0;" parent="1" source="VOFbCw_IlXWwH5Kaiug8-18" target="VOFbCw_IlXWwH5Kaiug8-13" edge="1">
          <mxGeometry width="160" relative="1" as="geometry">
            <mxPoint x="-260" y="390" as="sourcePoint" />
            <mxPoint x="-100" y="390" as="targetPoint" />
          </mxGeometry>
        </mxCell>
        <mxCell id="VOFbCw_IlXWwH5Kaiug8-23" value="Int" style="swimlane;fontStyle=1;align=center;verticalAlign=top;childLayout=stackLayout;horizontal=1;startSize=26;horizontalStack=0;resizeParent=1;resizeParentMax=0;resizeLast=0;collapsible=1;marginBottom=0;" parent="1" vertex="1">
          <mxGeometry x="20" y="-720" width="160" height="86" as="geometry" />
        </mxCell>
        <mxCell id="VOFbCw_IlXWwH5Kaiug8-24" value="+ field: type" style="text;strokeColor=none;fillColor=none;align=left;verticalAlign=top;spacingLeft=4;spacingRight=4;overflow=hidden;rotatable=0;points=[[0,0.5],[1,0.5]];portConstraint=eastwest;" parent="VOFbCw_IlXWwH5Kaiug8-23" vertex="1">
          <mxGeometry y="26" width="160" height="26" as="geometry" />
        </mxCell>
        <mxCell id="VOFbCw_IlXWwH5Kaiug8-25" value="" style="line;strokeWidth=1;fillColor=none;align=left;verticalAlign=middle;spacingTop=-1;spacingLeft=3;spacingRight=3;rotatable=0;labelPosition=right;points=[];portConstraint=eastwest;strokeColor=inherit;" parent="VOFbCw_IlXWwH5Kaiug8-23" vertex="1">
          <mxGeometry y="52" width="160" height="8" as="geometry" />
        </mxCell>
        <mxCell id="VOFbCw_IlXWwH5Kaiug8-26" value="+ method(type): type" style="text;strokeColor=none;fillColor=none;align=left;verticalAlign=top;spacingLeft=4;spacingRight=4;overflow=hidden;rotatable=0;points=[[0,0.5],[1,0.5]];portConstraint=eastwest;" parent="VOFbCw_IlXWwH5Kaiug8-23" vertex="1">
          <mxGeometry y="60" width="160" height="26" as="geometry" />
        </mxCell>
        <mxCell id="VOFbCw_IlXWwH5Kaiug8-27" value="Enum" style="swimlane;fontStyle=1;align=center;verticalAlign=top;childLayout=stackLayout;horizontal=1;startSize=26;horizontalStack=0;resizeParent=1;resizeParentMax=0;resizeLast=0;collapsible=1;marginBottom=0;" parent="1" vertex="1">
          <mxGeometry x="230" y="-720" width="160" height="86" as="geometry" />
        </mxCell>
        <mxCell id="VOFbCw_IlXWwH5Kaiug8-28" value="+ field: type" style="text;strokeColor=none;fillColor=none;align=left;verticalAlign=top;spacingLeft=4;spacingRight=4;overflow=hidden;rotatable=0;points=[[0,0.5],[1,0.5]];portConstraint=eastwest;" parent="VOFbCw_IlXWwH5Kaiug8-27" vertex="1">
          <mxGeometry y="26" width="160" height="26" as="geometry" />
        </mxCell>
        <mxCell id="VOFbCw_IlXWwH5Kaiug8-29" value="" style="line;strokeWidth=1;fillColor=none;align=left;verticalAlign=middle;spacingTop=-1;spacingLeft=3;spacingRight=3;rotatable=0;labelPosition=right;points=[];portConstraint=eastwest;strokeColor=inherit;" parent="VOFbCw_IlXWwH5Kaiug8-27" vertex="1">
          <mxGeometry y="52" width="160" height="8" as="geometry" />
        </mxCell>
        <mxCell id="VOFbCw_IlXWwH5Kaiug8-30" value="+ method(type): type" style="text;strokeColor=none;fillColor=none;align=left;verticalAlign=top;spacingLeft=4;spacingRight=4;overflow=hidden;rotatable=0;points=[[0,0.5],[1,0.5]];portConstraint=eastwest;" parent="VOFbCw_IlXWwH5Kaiug8-27" vertex="1">
          <mxGeometry y="60" width="160" height="26" as="geometry" />
        </mxCell>
        <mxCell id="VOFbCw_IlXWwH5Kaiug8-31" value="IntEnum" style="swimlane;fontStyle=1;align=center;verticalAlign=top;childLayout=stackLayout;horizontal=1;startSize=26;horizontalStack=0;resizeParent=1;resizeParentMax=0;resizeLast=0;collapsible=1;marginBottom=0;" parent="1" vertex="1">
          <mxGeometry x="120" y="-570" width="160" height="86" as="geometry" />
        </mxCell>
        <mxCell id="VOFbCw_IlXWwH5Kaiug8-32" value="+ field: type" style="text;strokeColor=none;fillColor=none;align=left;verticalAlign=top;spacingLeft=4;spacingRight=4;overflow=hidden;rotatable=0;points=[[0,0.5],[1,0.5]];portConstraint=eastwest;" parent="VOFbCw_IlXWwH5Kaiug8-31" vertex="1">
          <mxGeometry y="26" width="160" height="26" as="geometry" />
        </mxCell>
        <mxCell id="VOFbCw_IlXWwH5Kaiug8-33" value="" style="line;strokeWidth=1;fillColor=none;align=left;verticalAlign=middle;spacingTop=-1;spacingLeft=3;spacingRight=3;rotatable=0;labelPosition=right;points=[];portConstraint=eastwest;strokeColor=inherit;" parent="VOFbCw_IlXWwH5Kaiug8-31" vertex="1">
          <mxGeometry y="52" width="160" height="8" as="geometry" />
        </mxCell>
        <mxCell id="VOFbCw_IlXWwH5Kaiug8-34" value="+ method(type): type" style="text;strokeColor=none;fillColor=none;align=left;verticalAlign=top;spacingLeft=4;spacingRight=4;overflow=hidden;rotatable=0;points=[[0,0.5],[1,0.5]];portConstraint=eastwest;" parent="VOFbCw_IlXWwH5Kaiug8-31" vertex="1">
          <mxGeometry y="60" width="160" height="26" as="geometry" />
        </mxCell>
        <mxCell id="VOFbCw_IlXWwH5Kaiug8-35" value="Extends" style="endArrow=block;endSize=16;endFill=0;html=1;rounded=0;exitX=0.5;exitY=0;exitDx=0;exitDy=0;entryX=0.494;entryY=1.154;entryDx=0;entryDy=0;entryPerimeter=0;" parent="1" source="VOFbCw_IlXWwH5Kaiug8-31" target="VOFbCw_IlXWwH5Kaiug8-26" edge="1">
          <mxGeometry width="160" relative="1" as="geometry">
            <mxPoint x="-360" y="-430" as="sourcePoint" />
            <mxPoint x="-200" y="-430" as="targetPoint" />
          </mxGeometry>
        </mxCell>
        <mxCell id="VOFbCw_IlXWwH5Kaiug8-36" value="Extends" style="endArrow=block;endSize=16;endFill=0;html=1;rounded=0;exitX=0.5;exitY=0;exitDx=0;exitDy=0;entryX=0.5;entryY=1;entryDx=0;entryDy=0;" parent="1" source="VOFbCw_IlXWwH5Kaiug8-31" target="VOFbCw_IlXWwH5Kaiug8-27" edge="1">
          <mxGeometry width="160" relative="1" as="geometry">
            <mxPoint x="210" y="-560" as="sourcePoint" />
            <mxPoint x="109.03999999999996" y="-619.996" as="targetPoint" />
          </mxGeometry>
        </mxCell>
        <mxCell id="VOFbCw_IlXWwH5Kaiug8-38" value="TypeKind" style="swimlane;fontStyle=1;align=center;verticalAlign=top;childLayout=stackLayout;horizontal=1;startSize=26;horizontalStack=0;resizeParent=1;resizeParentMax=0;resizeLast=0;collapsible=1;marginBottom=0;" parent="1" vertex="1">
          <mxGeometry x="120" y="-446" width="160" height="86" as="geometry" />
        </mxCell>
        <mxCell id="VOFbCw_IlXWwH5Kaiug8-39" value="+ field: type" style="text;strokeColor=none;fillColor=none;align=left;verticalAlign=top;spacingLeft=4;spacingRight=4;overflow=hidden;rotatable=0;points=[[0,0.5],[1,0.5]];portConstraint=eastwest;" parent="VOFbCw_IlXWwH5Kaiug8-38" vertex="1">
          <mxGeometry y="26" width="160" height="26" as="geometry" />
        </mxCell>
        <mxCell id="VOFbCw_IlXWwH5Kaiug8-40" value="" style="line;strokeWidth=1;fillColor=none;align=left;verticalAlign=middle;spacingTop=-1;spacingLeft=3;spacingRight=3;rotatable=0;labelPosition=right;points=[];portConstraint=eastwest;strokeColor=inherit;" parent="VOFbCw_IlXWwH5Kaiug8-38" vertex="1">
          <mxGeometry y="52" width="160" height="8" as="geometry" />
        </mxCell>
        <mxCell id="VOFbCw_IlXWwH5Kaiug8-41" value="+ method(type): type" style="text;strokeColor=none;fillColor=none;align=left;verticalAlign=top;spacingLeft=4;spacingRight=4;overflow=hidden;rotatable=0;points=[[0,0.5],[1,0.5]];portConstraint=eastwest;" parent="VOFbCw_IlXWwH5Kaiug8-38" vertex="1">
          <mxGeometry y="60" width="160" height="26" as="geometry" />
        </mxCell>
        <mxCell id="VOFbCw_IlXWwH5Kaiug8-42" value="Extends" style="endArrow=block;endSize=16;endFill=0;html=1;rounded=0;entryX=0.506;entryY=1;entryDx=0;entryDy=0;entryPerimeter=0;" parent="1" source="VOFbCw_IlXWwH5Kaiug8-38" target="VOFbCw_IlXWwH5Kaiug8-34" edge="1">
          <mxGeometry width="160" relative="1" as="geometry">
            <mxPoint x="-360" y="-400" as="sourcePoint" />
            <mxPoint x="-200" y="-400" as="targetPoint" />
          </mxGeometry>
        </mxCell>
        <mxCell id="VOFbCw_IlXWwH5Kaiug8-44" value="PrimType" style="swimlane;fontStyle=1;align=center;verticalAlign=top;childLayout=stackLayout;horizontal=1;startSize=26;horizontalStack=0;resizeParent=1;resizeParentMax=0;resizeLast=0;collapsible=1;marginBottom=0;" parent="1" vertex="1">
          <mxGeometry x="-470" y="666" width="160" height="86" as="geometry" />
        </mxCell>
        <mxCell id="VOFbCw_IlXWwH5Kaiug8-45" value="+ field: type" style="text;strokeColor=none;fillColor=none;align=left;verticalAlign=top;spacingLeft=4;spacingRight=4;overflow=hidden;rotatable=0;points=[[0,0.5],[1,0.5]];portConstraint=eastwest;" parent="VOFbCw_IlXWwH5Kaiug8-44" vertex="1">
          <mxGeometry y="26" width="160" height="26" as="geometry" />
        </mxCell>
        <mxCell id="VOFbCw_IlXWwH5Kaiug8-46" value="" style="line;strokeWidth=1;fillColor=none;align=left;verticalAlign=middle;spacingTop=-1;spacingLeft=3;spacingRight=3;rotatable=0;labelPosition=right;points=[];portConstraint=eastwest;strokeColor=inherit;" parent="VOFbCw_IlXWwH5Kaiug8-44" vertex="1">
          <mxGeometry y="52" width="160" height="8" as="geometry" />
        </mxCell>
        <mxCell id="VOFbCw_IlXWwH5Kaiug8-47" value="+ method(type): type" style="text;strokeColor=none;fillColor=none;align=left;verticalAlign=top;spacingLeft=4;spacingRight=4;overflow=hidden;rotatable=0;points=[[0,0.5],[1,0.5]];portConstraint=eastwest;" parent="VOFbCw_IlXWwH5Kaiug8-44" vertex="1">
          <mxGeometry y="60" width="160" height="26" as="geometry" />
        </mxCell>
        <mxCell id="VOFbCw_IlXWwH5Kaiug8-49" value="Extends" style="endArrow=block;endSize=16;endFill=0;html=1;rounded=0;entryX=0.5;entryY=1;entryDx=0;entryDy=0;exitX=0.5;exitY=0;exitDx=0;exitDy=0;" parent="1" source="VOFbCw_IlXWwH5Kaiug8-44" target="VOFbCw_IlXWwH5Kaiug8-18" edge="1">
          <mxGeometry width="160" relative="1" as="geometry">
            <mxPoint x="-730" y="556" as="sourcePoint" />
            <mxPoint x="-570" y="556" as="targetPoint" />
          </mxGeometry>
        </mxCell>
        <mxCell id="VOFbCw_IlXWwH5Kaiug8-50" value="PointerType" style="swimlane;fontStyle=1;align=center;verticalAlign=top;childLayout=stackLayout;horizontal=1;startSize=26;horizontalStack=0;resizeParent=1;resizeParentMax=0;resizeLast=0;collapsible=1;marginBottom=0;" parent="1" vertex="1">
          <mxGeometry x="-690" y="666" width="160" height="86" as="geometry" />
        </mxCell>
        <mxCell id="VOFbCw_IlXWwH5Kaiug8-51" value="+ field: type" style="text;strokeColor=none;fillColor=none;align=left;verticalAlign=top;spacingLeft=4;spacingRight=4;overflow=hidden;rotatable=0;points=[[0,0.5],[1,0.5]];portConstraint=eastwest;" parent="VOFbCw_IlXWwH5Kaiug8-50" vertex="1">
          <mxGeometry y="26" width="160" height="26" as="geometry" />
        </mxCell>
        <mxCell id="VOFbCw_IlXWwH5Kaiug8-52" value="" style="line;strokeWidth=1;fillColor=none;align=left;verticalAlign=middle;spacingTop=-1;spacingLeft=3;spacingRight=3;rotatable=0;labelPosition=right;points=[];portConstraint=eastwest;strokeColor=inherit;" parent="VOFbCw_IlXWwH5Kaiug8-50" vertex="1">
          <mxGeometry y="52" width="160" height="8" as="geometry" />
        </mxCell>
        <mxCell id="VOFbCw_IlXWwH5Kaiug8-53" value="+ method(type): type" style="text;strokeColor=none;fillColor=none;align=left;verticalAlign=top;spacingLeft=4;spacingRight=4;overflow=hidden;rotatable=0;points=[[0,0.5],[1,0.5]];portConstraint=eastwest;" parent="VOFbCw_IlXWwH5Kaiug8-50" vertex="1">
          <mxGeometry y="60" width="160" height="26" as="geometry" />
        </mxCell>
        <mxCell id="VOFbCw_IlXWwH5Kaiug8-54" value="TypeVar" style="swimlane;fontStyle=1;align=center;verticalAlign=top;childLayout=stackLayout;horizontal=1;startSize=26;horizontalStack=0;resizeParent=1;resizeParentMax=0;resizeLast=0;collapsible=1;marginBottom=0;" parent="1" vertex="1">
          <mxGeometry x="-910" y="666" width="160" height="86" as="geometry" />
        </mxCell>
        <mxCell id="VOFbCw_IlXWwH5Kaiug8-55" value="+ field: type" style="text;strokeColor=none;fillColor=none;align=left;verticalAlign=top;spacingLeft=4;spacingRight=4;overflow=hidden;rotatable=0;points=[[0,0.5],[1,0.5]];portConstraint=eastwest;" parent="VOFbCw_IlXWwH5Kaiug8-54" vertex="1">
          <mxGeometry y="26" width="160" height="26" as="geometry" />
        </mxCell>
        <mxCell id="VOFbCw_IlXWwH5Kaiug8-56" value="" style="line;strokeWidth=1;fillColor=none;align=left;verticalAlign=middle;spacingTop=-1;spacingLeft=3;spacingRight=3;rotatable=0;labelPosition=right;points=[];portConstraint=eastwest;strokeColor=inherit;" parent="VOFbCw_IlXWwH5Kaiug8-54" vertex="1">
          <mxGeometry y="52" width="160" height="8" as="geometry" />
        </mxCell>
        <mxCell id="VOFbCw_IlXWwH5Kaiug8-57" value="+ method(type): type" style="text;strokeColor=none;fillColor=none;align=left;verticalAlign=top;spacingLeft=4;spacingRight=4;overflow=hidden;rotatable=0;points=[[0,0.5],[1,0.5]];portConstraint=eastwest;" parent="VOFbCw_IlXWwH5Kaiug8-54" vertex="1">
          <mxGeometry y="60" width="160" height="26" as="geometry" />
        </mxCell>
        <mxCell id="VOFbCw_IlXWwH5Kaiug8-58" value="Extends" style="endArrow=block;endSize=16;endFill=0;html=1;rounded=0;entryX=0.5;entryY=1;entryDx=0;entryDy=0;exitX=0.5;exitY=0;exitDx=0;exitDy=0;" parent="1" source="VOFbCw_IlXWwH5Kaiug8-50" target="VOFbCw_IlXWwH5Kaiug8-18" edge="1">
          <mxGeometry width="160" relative="1" as="geometry">
            <mxPoint x="-380" y="676" as="sourcePoint" />
            <mxPoint x="-470" y="612" as="targetPoint" />
          </mxGeometry>
        </mxCell>
        <mxCell id="VOFbCw_IlXWwH5Kaiug8-59" value="Extends" style="endArrow=block;endSize=16;endFill=0;html=1;rounded=0;exitX=0.5;exitY=0;exitDx=0;exitDy=0;entryX=0.569;entryY=1.077;entryDx=0;entryDy=0;entryPerimeter=0;" parent="1" source="VOFbCw_IlXWwH5Kaiug8-54" target="VOFbCw_IlXWwH5Kaiug8-21" edge="1">
          <mxGeometry width="160" relative="1" as="geometry">
            <mxPoint x="-600" y="676" as="sourcePoint" />
            <mxPoint x="-480" y="626" as="targetPoint" />
          </mxGeometry>
        </mxCell>
        <mxCell id="VOFbCw_IlXWwH5Kaiug8-61" value="TypeCall" style="swimlane;fontStyle=1;align=center;verticalAlign=top;childLayout=stackLayout;horizontal=1;startSize=26;horizontalStack=0;resizeParent=1;resizeParentMax=0;resizeLast=0;collapsible=1;marginBottom=0;" parent="1" vertex="1">
          <mxGeometry x="-1120" y="666" width="160" height="86" as="geometry" />
        </mxCell>
        <mxCell id="VOFbCw_IlXWwH5Kaiug8-62" value="+ field: type" style="text;strokeColor=none;fillColor=none;align=left;verticalAlign=top;spacingLeft=4;spacingRight=4;overflow=hidden;rotatable=0;points=[[0,0.5],[1,0.5]];portConstraint=eastwest;" parent="VOFbCw_IlXWwH5Kaiug8-61" vertex="1">
          <mxGeometry y="26" width="160" height="26" as="geometry" />
        </mxCell>
        <mxCell id="VOFbCw_IlXWwH5Kaiug8-63" value="" style="line;strokeWidth=1;fillColor=none;align=left;verticalAlign=middle;spacingTop=-1;spacingLeft=3;spacingRight=3;rotatable=0;labelPosition=right;points=[];portConstraint=eastwest;strokeColor=inherit;" parent="VOFbCw_IlXWwH5Kaiug8-61" vertex="1">
          <mxGeometry y="52" width="160" height="8" as="geometry" />
        </mxCell>
        <mxCell id="VOFbCw_IlXWwH5Kaiug8-64" value="+ method(type): type" style="text;strokeColor=none;fillColor=none;align=left;verticalAlign=top;spacingLeft=4;spacingRight=4;overflow=hidden;rotatable=0;points=[[0,0.5],[1,0.5]];portConstraint=eastwest;" parent="VOFbCw_IlXWwH5Kaiug8-61" vertex="1">
          <mxGeometry y="60" width="160" height="26" as="geometry" />
        </mxCell>
        <mxCell id="VOFbCw_IlXWwH5Kaiug8-65" value="Extends" style="endArrow=block;endSize=16;endFill=0;html=1;rounded=0;entryX=0.513;entryY=1.038;entryDx=0;entryDy=0;entryPerimeter=0;exitX=0.5;exitY=0;exitDx=0;exitDy=0;" parent="1" source="VOFbCw_IlXWwH5Kaiug8-61" target="VOFbCw_IlXWwH5Kaiug8-21" edge="1">
          <mxGeometry width="160" relative="1" as="geometry">
            <mxPoint x="-730" y="556" as="sourcePoint" />
            <mxPoint x="-570" y="556" as="targetPoint" />
          </mxGeometry>
        </mxCell>
        <mxCell id="VOFbCw_IlXWwH5Kaiug8-66" value="Use" style="endArrow=open;endSize=12;dashed=1;html=1;rounded=0;exitX=0;exitY=0;exitDx=0;exitDy=0;entryX=1;entryY=0;entryDx=0;entryDy=0;" parent="1" source="VOFbCw_IlXWwH5Kaiug8-54" target="VOFbCw_IlXWwH5Kaiug8-61" edge="1">
          <mxGeometry width="160" relative="1" as="geometry">
            <mxPoint x="-730" y="556" as="sourcePoint" />
            <mxPoint x="-570" y="556" as="targetPoint" />
          </mxGeometry>
        </mxCell>
        <mxCell id="VOFbCw_IlXWwH5Kaiug8-68" value="GlobalTypeVar" style="swimlane;fontStyle=1;align=center;verticalAlign=top;childLayout=stackLayout;horizontal=1;startSize=26;horizontalStack=0;resizeParent=1;resizeParentMax=0;resizeLast=0;collapsible=1;marginBottom=0;" parent="1" vertex="1">
          <mxGeometry x="-1330" y="666" width="160" height="86" as="geometry" />
        </mxCell>
        <mxCell id="VOFbCw_IlXWwH5Kaiug8-69" value="+ field: type" style="text;strokeColor=none;fillColor=none;align=left;verticalAlign=top;spacingLeft=4;spacingRight=4;overflow=hidden;rotatable=0;points=[[0,0.5],[1,0.5]];portConstraint=eastwest;" parent="VOFbCw_IlXWwH5Kaiug8-68" vertex="1">
          <mxGeometry y="26" width="160" height="26" as="geometry" />
        </mxCell>
        <mxCell id="VOFbCw_IlXWwH5Kaiug8-70" value="" style="line;strokeWidth=1;fillColor=none;align=left;verticalAlign=middle;spacingTop=-1;spacingLeft=3;spacingRight=3;rotatable=0;labelPosition=right;points=[];portConstraint=eastwest;strokeColor=inherit;" parent="VOFbCw_IlXWwH5Kaiug8-68" vertex="1">
          <mxGeometry y="52" width="160" height="8" as="geometry" />
        </mxCell>
        <mxCell id="VOFbCw_IlXWwH5Kaiug8-71" value="+ method(type): type" style="text;strokeColor=none;fillColor=none;align=left;verticalAlign=top;spacingLeft=4;spacingRight=4;overflow=hidden;rotatable=0;points=[[0,0.5],[1,0.5]];portConstraint=eastwest;" parent="VOFbCw_IlXWwH5Kaiug8-68" vertex="1">
          <mxGeometry y="60" width="160" height="26" as="geometry" />
        </mxCell>
        <mxCell id="VOFbCw_IlXWwH5Kaiug8-72" value="Extends" style="endArrow=block;endSize=16;endFill=0;html=1;rounded=0;exitX=0.5;exitY=0;exitDx=0;exitDy=0;entryX=0;entryY=0;entryDx=0;entryDy=0;" parent="1" source="VOFbCw_IlXWwH5Kaiug8-68" target="VOFbCw_IlXWwH5Kaiug8-18" edge="1">
          <mxGeometry width="160" relative="1" as="geometry">
            <mxPoint x="-730" y="556" as="sourcePoint" />
            <mxPoint x="-340" y="616" as="targetPoint" />
          </mxGeometry>
        </mxCell>
        <mxCell id="VOFbCw_IlXWwH5Kaiug8-73" value="Use" style="endArrow=open;endSize=12;dashed=1;html=1;rounded=0;exitX=1;exitY=0;exitDx=0;exitDy=0;entryX=0;entryY=0;entryDx=0;entryDy=0;" parent="1" source="VOFbCw_IlXWwH5Kaiug8-68" target="VOFbCw_IlXWwH5Kaiug8-61" edge="1">
          <mxGeometry width="160" relative="1" as="geometry">
            <mxPoint x="-730" y="556" as="sourcePoint" />
            <mxPoint x="-570" y="556" as="targetPoint" />
          </mxGeometry>
        </mxCell>
        <mxCell id="VOFbCw_IlXWwH5Kaiug8-74" value="TupleType" style="swimlane;fontStyle=1;align=center;verticalAlign=top;childLayout=stackLayout;horizontal=1;startSize=26;horizontalStack=0;resizeParent=1;resizeParentMax=0;resizeLast=0;collapsible=1;marginBottom=0;" parent="1" vertex="1">
          <mxGeometry x="-1520" y="666" width="160" height="86" as="geometry" />
        </mxCell>
        <mxCell id="VOFbCw_IlXWwH5Kaiug8-75" value="+ field: type" style="text;strokeColor=none;fillColor=none;align=left;verticalAlign=top;spacingLeft=4;spacingRight=4;overflow=hidden;rotatable=0;points=[[0,0.5],[1,0.5]];portConstraint=eastwest;" parent="VOFbCw_IlXWwH5Kaiug8-74" vertex="1">
          <mxGeometry y="26" width="160" height="26" as="geometry" />
        </mxCell>
        <mxCell id="VOFbCw_IlXWwH5Kaiug8-76" value="" style="line;strokeWidth=1;fillColor=none;align=left;verticalAlign=middle;spacingTop=-1;spacingLeft=3;spacingRight=3;rotatable=0;labelPosition=right;points=[];portConstraint=eastwest;strokeColor=inherit;" parent="VOFbCw_IlXWwH5Kaiug8-74" vertex="1">
          <mxGeometry y="52" width="160" height="8" as="geometry" />
        </mxCell>
        <mxCell id="VOFbCw_IlXWwH5Kaiug8-77" value="+ method(type): type" style="text;strokeColor=none;fillColor=none;align=left;verticalAlign=top;spacingLeft=4;spacingRight=4;overflow=hidden;rotatable=0;points=[[0,0.5],[1,0.5]];portConstraint=eastwest;" parent="VOFbCw_IlXWwH5Kaiug8-74" vertex="1">
          <mxGeometry y="60" width="160" height="26" as="geometry" />
        </mxCell>
        <mxCell id="VOFbCw_IlXWwH5Kaiug8-78" value="Extends" style="endArrow=block;endSize=16;endFill=0;html=1;rounded=0;exitX=0.5;exitY=0;exitDx=0;exitDy=0;entryX=0;entryY=0;entryDx=0;entryDy=0;" parent="1" source="VOFbCw_IlXWwH5Kaiug8-74" target="VOFbCw_IlXWwH5Kaiug8-18" edge="1">
          <mxGeometry width="160" relative="1" as="geometry">
            <mxPoint x="-920" y="556" as="sourcePoint" />
            <mxPoint x="-750" y="506" as="targetPoint" />
          </mxGeometry>
        </mxCell>
        <mxCell id="VOFbCw_IlXWwH5Kaiug8-79" value="TypeConstraint" style="swimlane;fontStyle=1;align=center;verticalAlign=top;childLayout=stackLayout;horizontal=1;startSize=26;horizontalStack=0;resizeParent=1;resizeParentMax=0;resizeLast=0;collapsible=1;marginBottom=0;" parent="1" vertex="1">
          <mxGeometry x="-660" y="816" width="160" height="86" as="geometry" />
        </mxCell>
        <mxCell id="VOFbCw_IlXWwH5Kaiug8-80" value="+ field: type" style="text;strokeColor=none;fillColor=none;align=left;verticalAlign=top;spacingLeft=4;spacingRight=4;overflow=hidden;rotatable=0;points=[[0,0.5],[1,0.5]];portConstraint=eastwest;" parent="VOFbCw_IlXWwH5Kaiug8-79" vertex="1">
          <mxGeometry y="26" width="160" height="26" as="geometry" />
        </mxCell>
        <mxCell id="VOFbCw_IlXWwH5Kaiug8-81" value="" style="line;strokeWidth=1;fillColor=none;align=left;verticalAlign=middle;spacingTop=-1;spacingLeft=3;spacingRight=3;rotatable=0;labelPosition=right;points=[];portConstraint=eastwest;strokeColor=inherit;" parent="VOFbCw_IlXWwH5Kaiug8-79" vertex="1">
          <mxGeometry y="52" width="160" height="8" as="geometry" />
        </mxCell>
        <mxCell id="VOFbCw_IlXWwH5Kaiug8-82" value="+ method(type): type" style="text;strokeColor=none;fillColor=none;align=left;verticalAlign=top;spacingLeft=4;spacingRight=4;overflow=hidden;rotatable=0;points=[[0,0.5],[1,0.5]];portConstraint=eastwest;" parent="VOFbCw_IlXWwH5Kaiug8-79" vertex="1">
          <mxGeometry y="60" width="160" height="26" as="geometry" />
        </mxCell>
        <mxCell id="VOFbCw_IlXWwH5Kaiug8-83" value="Extends" style="endArrow=block;endSize=16;endFill=0;html=1;rounded=0;exitX=0.5;exitY=0;exitDx=0;exitDy=0;entryX=0;entryY=0;entryDx=0;entryDy=0;" parent="1" source="VOFbCw_IlXWwH5Kaiug8-79" target="VOFbCw_IlXWwH5Kaiug8-18" edge="1">
          <mxGeometry width="160" relative="1" as="geometry">
            <mxPoint x="-1140" y="556" as="sourcePoint" />
            <mxPoint x="-780" y="506" as="targetPoint" />
          </mxGeometry>
        </mxCell>
        <mxCell id="VOFbCw_IlXWwH5Kaiug8-84" value="FuncType" style="swimlane;fontStyle=1;align=center;verticalAlign=top;childLayout=stackLayout;horizontal=1;startSize=26;horizontalStack=0;resizeParent=1;resizeParentMax=0;resizeLast=0;collapsible=1;marginBottom=0;" parent="1" vertex="1">
          <mxGeometry x="-850" y="816" width="160" height="86" as="geometry" />
        </mxCell>
        <mxCell id="VOFbCw_IlXWwH5Kaiug8-85" value="+ field: type" style="text;strokeColor=none;fillColor=none;align=left;verticalAlign=top;spacingLeft=4;spacingRight=4;overflow=hidden;rotatable=0;points=[[0,0.5],[1,0.5]];portConstraint=eastwest;" parent="VOFbCw_IlXWwH5Kaiug8-84" vertex="1">
          <mxGeometry y="26" width="160" height="26" as="geometry" />
        </mxCell>
        <mxCell id="VOFbCw_IlXWwH5Kaiug8-86" value="" style="line;strokeWidth=1;fillColor=none;align=left;verticalAlign=middle;spacingTop=-1;spacingLeft=3;spacingRight=3;rotatable=0;labelPosition=right;points=[];portConstraint=eastwest;strokeColor=inherit;" parent="VOFbCw_IlXWwH5Kaiug8-84" vertex="1">
          <mxGeometry y="52" width="160" height="8" as="geometry" />
        </mxCell>
        <mxCell id="VOFbCw_IlXWwH5Kaiug8-87" value="+ method(type): type" style="text;strokeColor=none;fillColor=none;align=left;verticalAlign=top;spacingLeft=4;spacingRight=4;overflow=hidden;rotatable=0;points=[[0,0.5],[1,0.5]];portConstraint=eastwest;" parent="VOFbCw_IlXWwH5Kaiug8-84" vertex="1">
          <mxGeometry y="60" width="160" height="26" as="geometry" />
        </mxCell>
        <mxCell id="VOFbCw_IlXWwH5Kaiug8-88" value="Extends" style="endArrow=block;endSize=16;endFill=0;html=1;rounded=0;exitX=0.5;exitY=0;exitDx=0;exitDy=0;entryX=0.069;entryY=0;entryDx=0;entryDy=0;entryPerimeter=0;" parent="1" source="VOFbCw_IlXWwH5Kaiug8-84" target="VOFbCw_IlXWwH5Kaiug8-18" edge="1">
          <mxGeometry width="160" relative="1" as="geometry">
            <mxPoint x="-1320" y="556" as="sourcePoint" />
            <mxPoint x="-740" y="506" as="targetPoint" />
          </mxGeometry>
        </mxCell>
        <mxCell id="VOFbCw_IlXWwH5Kaiug8-89" value="Use" style="endArrow=open;endSize=12;dashed=1;html=1;rounded=0;exitX=1;exitY=0;exitDx=0;exitDy=0;entryX=0;entryY=0;entryDx=0;entryDy=0;" parent="1" source="VOFbCw_IlXWwH5Kaiug8-84" target="VOFbCw_IlXWwH5Kaiug8-79" edge="1">
          <mxGeometry width="160" relative="1" as="geometry">
            <mxPoint x="-1530" y="476" as="sourcePoint" />
            <mxPoint x="-1370" y="476" as="targetPoint" />
          </mxGeometry>
        </mxCell>
        <mxCell id="VOFbCw_IlXWwH5Kaiug8-91" value="IncompleteType" style="swimlane;fontStyle=1;align=center;verticalAlign=top;childLayout=stackLayout;horizontal=1;startSize=26;horizontalStack=0;resizeParent=1;resizeParentMax=0;resizeLast=0;collapsible=1;marginBottom=0;" parent="1" vertex="1">
          <mxGeometry x="-1050" y="816" width="160" height="86" as="geometry" />
        </mxCell>
        <mxCell id="VOFbCw_IlXWwH5Kaiug8-92" value="+ field: type" style="text;strokeColor=none;fillColor=none;align=left;verticalAlign=top;spacingLeft=4;spacingRight=4;overflow=hidden;rotatable=0;points=[[0,0.5],[1,0.5]];portConstraint=eastwest;" parent="VOFbCw_IlXWwH5Kaiug8-91" vertex="1">
          <mxGeometry y="26" width="160" height="26" as="geometry" />
        </mxCell>
        <mxCell id="VOFbCw_IlXWwH5Kaiug8-93" value="" style="line;strokeWidth=1;fillColor=none;align=left;verticalAlign=middle;spacingTop=-1;spacingLeft=3;spacingRight=3;rotatable=0;labelPosition=right;points=[];portConstraint=eastwest;strokeColor=inherit;" parent="VOFbCw_IlXWwH5Kaiug8-91" vertex="1">
          <mxGeometry y="52" width="160" height="8" as="geometry" />
        </mxCell>
        <mxCell id="VOFbCw_IlXWwH5Kaiug8-94" value="+ method(type): type" style="text;strokeColor=none;fillColor=none;align=left;verticalAlign=top;spacingLeft=4;spacingRight=4;overflow=hidden;rotatable=0;points=[[0,0.5],[1,0.5]];portConstraint=eastwest;" parent="VOFbCw_IlXWwH5Kaiug8-91" vertex="1">
          <mxGeometry y="60" width="160" height="26" as="geometry" />
        </mxCell>
        <mxCell id="VOFbCw_IlXWwH5Kaiug8-95" value="Extends" style="endArrow=block;endSize=16;endFill=0;html=1;rounded=0;exitX=0.5;exitY=0;exitDx=0;exitDy=0;entryX=0.056;entryY=0.012;entryDx=0;entryDy=0;entryPerimeter=0;" parent="1" source="VOFbCw_IlXWwH5Kaiug8-91" target="VOFbCw_IlXWwH5Kaiug8-18" edge="1">
          <mxGeometry width="160" relative="1" as="geometry">
            <mxPoint x="-1850" y="676" as="sourcePoint" />
            <mxPoint x="-610" y="556" as="targetPoint" />
          </mxGeometry>
        </mxCell>
        <mxCell id="VOFbCw_IlXWwH5Kaiug8-97" value="RelayRefType" style="swimlane;fontStyle=1;align=center;verticalAlign=top;childLayout=stackLayout;horizontal=1;startSize=26;horizontalStack=0;resizeParent=1;resizeParentMax=0;resizeLast=0;collapsible=1;marginBottom=0;" parent="1" vertex="1">
          <mxGeometry x="-1250" y="816" width="160" height="86" as="geometry" />
        </mxCell>
        <mxCell id="VOFbCw_IlXWwH5Kaiug8-98" value="+ field: type" style="text;strokeColor=none;fillColor=none;align=left;verticalAlign=top;spacingLeft=4;spacingRight=4;overflow=hidden;rotatable=0;points=[[0,0.5],[1,0.5]];portConstraint=eastwest;" parent="VOFbCw_IlXWwH5Kaiug8-97" vertex="1">
          <mxGeometry y="26" width="160" height="26" as="geometry" />
        </mxCell>
        <mxCell id="VOFbCw_IlXWwH5Kaiug8-99" value="" style="line;strokeWidth=1;fillColor=none;align=left;verticalAlign=middle;spacingTop=-1;spacingLeft=3;spacingRight=3;rotatable=0;labelPosition=right;points=[];portConstraint=eastwest;strokeColor=inherit;" parent="VOFbCw_IlXWwH5Kaiug8-97" vertex="1">
          <mxGeometry y="52" width="160" height="8" as="geometry" />
        </mxCell>
        <mxCell id="VOFbCw_IlXWwH5Kaiug8-100" value="+ method(type): type" style="text;strokeColor=none;fillColor=none;align=left;verticalAlign=top;spacingLeft=4;spacingRight=4;overflow=hidden;rotatable=0;points=[[0,0.5],[1,0.5]];portConstraint=eastwest;" parent="VOFbCw_IlXWwH5Kaiug8-97" vertex="1">
          <mxGeometry y="60" width="160" height="26" as="geometry" />
        </mxCell>
        <mxCell id="VOFbCw_IlXWwH5Kaiug8-101" value="Extends" style="endArrow=block;endSize=16;endFill=0;html=1;rounded=0;exitX=0.5;exitY=0;exitDx=0;exitDy=0;entryX=0;entryY=0;entryDx=0;entryDy=0;fontSize=8;" parent="1" source="VOFbCw_IlXWwH5Kaiug8-97" target="VOFbCw_IlXWwH5Kaiug8-18" edge="1">
          <mxGeometry width="160" relative="1" as="geometry">
            <mxPoint x="-800" y="806" as="sourcePoint" />
            <mxPoint x="-640" y="806" as="targetPoint" />
          </mxGeometry>
        </mxCell>
        <mxCell id="VOFbCw_IlXWwH5Kaiug8-103" value="TensorType" style="swimlane;fontStyle=1;align=center;verticalAlign=top;childLayout=stackLayout;horizontal=1;startSize=26;horizontalStack=0;resizeParent=1;resizeParentMax=0;resizeLast=0;collapsible=1;marginBottom=0;fillColor=#f8cecc;strokeColor=#b85450;" parent="1" vertex="1">
          <mxGeometry x="-400" y="870" width="160" height="86" as="geometry" />
        </mxCell>
        <mxCell id="VOFbCw_IlXWwH5Kaiug8-104" value="+ field: type" style="text;strokeColor=none;fillColor=none;align=left;verticalAlign=top;spacingLeft=4;spacingRight=4;overflow=hidden;rotatable=0;points=[[0,0.5],[1,0.5]];portConstraint=eastwest;" parent="VOFbCw_IlXWwH5Kaiug8-103" vertex="1">
          <mxGeometry y="26" width="160" height="26" as="geometry" />
        </mxCell>
        <mxCell id="VOFbCw_IlXWwH5Kaiug8-105" value="" style="line;strokeWidth=1;fillColor=none;align=left;verticalAlign=middle;spacingTop=-1;spacingLeft=3;spacingRight=3;rotatable=0;labelPosition=right;points=[];portConstraint=eastwest;strokeColor=inherit;" parent="VOFbCw_IlXWwH5Kaiug8-103" vertex="1">
          <mxGeometry y="52" width="160" height="8" as="geometry" />
        </mxCell>
        <mxCell id="VOFbCw_IlXWwH5Kaiug8-106" value="+ method(type): type" style="text;strokeColor=none;fillColor=none;align=left;verticalAlign=top;spacingLeft=4;spacingRight=4;overflow=hidden;rotatable=0;points=[[0,0.5],[1,0.5]];portConstraint=eastwest;" parent="VOFbCw_IlXWwH5Kaiug8-103" vertex="1">
          <mxGeometry y="60" width="160" height="26" as="geometry" />
        </mxCell>
        <mxCell id="VOFbCw_IlXWwH5Kaiug8-107" value="" style="endArrow=classic;html=1;rounded=0;fontSize=8;exitX=0.5;exitY=0;exitDx=0;exitDy=0;entryX=0;entryY=0;entryDx=0;entryDy=0;" parent="1" target="VOFbCw_IlXWwH5Kaiug8-18" edge="1">
          <mxGeometry width="50" height="50" relative="1" as="geometry">
            <mxPoint x="-400" y="966" as="sourcePoint" />
            <mxPoint x="-580" y="566" as="targetPoint" />
          </mxGeometry>
        </mxCell>
        <mxCell id="VOFbCw_IlXWwH5Kaiug8-115" value="BaseExpr" style="swimlane;fontStyle=1;align=center;verticalAlign=top;childLayout=stackLayout;horizontal=1;startSize=26;horizontalStack=0;resizeParent=1;resizeParentMax=0;resizeLast=0;collapsible=1;marginBottom=0;" parent="1" vertex="1">
          <mxGeometry x="100" y="386" width="160" height="86" as="geometry" />
        </mxCell>
        <mxCell id="VOFbCw_IlXWwH5Kaiug8-116" value="+ field: type" style="text;strokeColor=none;fillColor=none;align=left;verticalAlign=top;spacingLeft=4;spacingRight=4;overflow=hidden;rotatable=0;points=[[0,0.5],[1,0.5]];portConstraint=eastwest;" parent="VOFbCw_IlXWwH5Kaiug8-115" vertex="1">
          <mxGeometry y="26" width="160" height="26" as="geometry" />
        </mxCell>
        <mxCell id="VOFbCw_IlXWwH5Kaiug8-117" value="" style="line;strokeWidth=1;fillColor=none;align=left;verticalAlign=middle;spacingTop=-1;spacingLeft=3;spacingRight=3;rotatable=0;labelPosition=right;points=[];portConstraint=eastwest;strokeColor=inherit;" parent="VOFbCw_IlXWwH5Kaiug8-115" vertex="1">
          <mxGeometry y="52" width="160" height="8" as="geometry" />
        </mxCell>
        <mxCell id="VOFbCw_IlXWwH5Kaiug8-118" value="+ method(type): type" style="text;strokeColor=none;fillColor=none;align=left;verticalAlign=top;spacingLeft=4;spacingRight=4;overflow=hidden;rotatable=0;points=[[0,0.5],[1,0.5]];portConstraint=eastwest;" parent="VOFbCw_IlXWwH5Kaiug8-115" vertex="1">
          <mxGeometry y="60" width="160" height="26" as="geometry" />
        </mxCell>
        <mxCell id="VOFbCw_IlXWwH5Kaiug8-119" value="PrimExpr" style="swimlane;fontStyle=1;align=center;verticalAlign=top;childLayout=stackLayout;horizontal=1;startSize=26;horizontalStack=0;resizeParent=1;resizeParentMax=0;resizeLast=0;collapsible=1;marginBottom=0;" parent="1" vertex="1">
          <mxGeometry x="200" y="530" width="160" height="86" as="geometry" />
        </mxCell>
        <mxCell id="VOFbCw_IlXWwH5Kaiug8-120" value="+ field: type" style="text;strokeColor=none;fillColor=none;align=left;verticalAlign=top;spacingLeft=4;spacingRight=4;overflow=hidden;rotatable=0;points=[[0,0.5],[1,0.5]];portConstraint=eastwest;" parent="VOFbCw_IlXWwH5Kaiug8-119" vertex="1">
          <mxGeometry y="26" width="160" height="26" as="geometry" />
        </mxCell>
        <mxCell id="VOFbCw_IlXWwH5Kaiug8-121" value="" style="line;strokeWidth=1;fillColor=none;align=left;verticalAlign=middle;spacingTop=-1;spacingLeft=3;spacingRight=3;rotatable=0;labelPosition=right;points=[];portConstraint=eastwest;strokeColor=inherit;" parent="VOFbCw_IlXWwH5Kaiug8-119" vertex="1">
          <mxGeometry y="52" width="160" height="8" as="geometry" />
        </mxCell>
        <mxCell id="VOFbCw_IlXWwH5Kaiug8-122" value="+ method(type): type" style="text;strokeColor=none;fillColor=none;align=left;verticalAlign=top;spacingLeft=4;spacingRight=4;overflow=hidden;rotatable=0;points=[[0,0.5],[1,0.5]];portConstraint=eastwest;" parent="VOFbCw_IlXWwH5Kaiug8-119" vertex="1">
          <mxGeometry y="60" width="160" height="26" as="geometry" />
        </mxCell>
        <mxCell id="VOFbCw_IlXWwH5Kaiug8-123" value="RelayExpr" style="swimlane;fontStyle=1;align=center;verticalAlign=top;childLayout=stackLayout;horizontal=1;startSize=26;horizontalStack=0;resizeParent=1;resizeParentMax=0;resizeLast=0;collapsible=1;marginBottom=0;" parent="1" vertex="1">
          <mxGeometry y="530" width="160" height="86" as="geometry" />
        </mxCell>
        <mxCell id="VOFbCw_IlXWwH5Kaiug8-124" value="+ field: type" style="text;strokeColor=none;fillColor=none;align=left;verticalAlign=top;spacingLeft=4;spacingRight=4;overflow=hidden;rotatable=0;points=[[0,0.5],[1,0.5]];portConstraint=eastwest;" parent="VOFbCw_IlXWwH5Kaiug8-123" vertex="1">
          <mxGeometry y="26" width="160" height="26" as="geometry" />
        </mxCell>
        <mxCell id="VOFbCw_IlXWwH5Kaiug8-125" value="" style="line;strokeWidth=1;fillColor=none;align=left;verticalAlign=middle;spacingTop=-1;spacingLeft=3;spacingRight=3;rotatable=0;labelPosition=right;points=[];portConstraint=eastwest;strokeColor=inherit;" parent="VOFbCw_IlXWwH5Kaiug8-123" vertex="1">
          <mxGeometry y="52" width="160" height="8" as="geometry" />
        </mxCell>
        <mxCell id="VOFbCw_IlXWwH5Kaiug8-126" value="+ method(type): type" style="text;strokeColor=none;fillColor=none;align=left;verticalAlign=top;spacingLeft=4;spacingRight=4;overflow=hidden;rotatable=0;points=[[0,0.5],[1,0.5]];portConstraint=eastwest;" parent="VOFbCw_IlXWwH5Kaiug8-123" vertex="1">
          <mxGeometry y="60" width="160" height="26" as="geometry" />
        </mxCell>
        <mxCell id="VOFbCw_IlXWwH5Kaiug8-127" value="GlobalVar" style="swimlane;fontStyle=1;align=center;verticalAlign=top;childLayout=stackLayout;horizontal=1;startSize=26;horizontalStack=0;resizeParent=1;resizeParentMax=0;resizeLast=0;collapsible=1;marginBottom=0;" parent="1" vertex="1">
          <mxGeometry y="706" width="160" height="86" as="geometry" />
        </mxCell>
        <mxCell id="VOFbCw_IlXWwH5Kaiug8-128" value="+ field: type" style="text;strokeColor=none;fillColor=none;align=left;verticalAlign=top;spacingLeft=4;spacingRight=4;overflow=hidden;rotatable=0;points=[[0,0.5],[1,0.5]];portConstraint=eastwest;" parent="VOFbCw_IlXWwH5Kaiug8-127" vertex="1">
          <mxGeometry y="26" width="160" height="26" as="geometry" />
        </mxCell>
        <mxCell id="VOFbCw_IlXWwH5Kaiug8-129" value="" style="line;strokeWidth=1;fillColor=none;align=left;verticalAlign=middle;spacingTop=-1;spacingLeft=3;spacingRight=3;rotatable=0;labelPosition=right;points=[];portConstraint=eastwest;strokeColor=inherit;" parent="VOFbCw_IlXWwH5Kaiug8-127" vertex="1">
          <mxGeometry y="52" width="160" height="8" as="geometry" />
        </mxCell>
        <mxCell id="VOFbCw_IlXWwH5Kaiug8-130" value="+ method(type): type" style="text;strokeColor=none;fillColor=none;align=left;verticalAlign=top;spacingLeft=4;spacingRight=4;overflow=hidden;rotatable=0;points=[[0,0.5],[1,0.5]];portConstraint=eastwest;" parent="VOFbCw_IlXWwH5Kaiug8-127" vertex="1">
          <mxGeometry y="60" width="160" height="26" as="geometry" />
        </mxCell>
        <mxCell id="VOFbCw_IlXWwH5Kaiug8-131" value="" style="endArrow=blockThin;html=1;rounded=0;fontSize=30;entryX=0.533;entryY=0.978;entryDx=0;entryDy=0;entryPerimeter=0;exitX=0.5;exitY=0;exitDx=0;exitDy=0;exitPerimeter=0;endFill=1;" parent="1" source="VOFbCw_IlXWwH5Kaiug8-115" target="VOFbCw_IlXWwH5Kaiug8-13" edge="1">
          <mxGeometry width="50" height="50" relative="1" as="geometry">
            <mxPoint x="-950" y="460" as="sourcePoint" />
            <mxPoint x="-1320" y="310" as="targetPoint" />
          </mxGeometry>
        </mxCell>
        <mxCell id="VOFbCw_IlXWwH5Kaiug8-132" value="" style="endArrow=blockThin;html=1;rounded=0;fontSize=30;entryX=0.542;entryY=0.978;entryDx=0;entryDy=0;entryPerimeter=0;exitX=0.5;exitY=0;exitDx=0;exitDy=0;endFill=1;" parent="1" source="VOFbCw_IlXWwH5Kaiug8-123" target="VOFbCw_IlXWwH5Kaiug8-118" edge="1">
          <mxGeometry width="50" height="50" relative="1" as="geometry">
            <mxPoint x="190" y="396" as="sourcePoint" />
            <mxPoint x="435.2800000000002" y="271.4279999999999" as="targetPoint" />
          </mxGeometry>
        </mxCell>
        <mxCell id="VOFbCw_IlXWwH5Kaiug8-133" value="" style="endArrow=blockThin;html=1;rounded=0;fontSize=30;exitX=0.5;exitY=0;exitDx=0;exitDy=0;entryX=0.522;entryY=1.022;entryDx=0;entryDy=0;entryPerimeter=0;endFill=1;" parent="1" source="VOFbCw_IlXWwH5Kaiug8-119" target="VOFbCw_IlXWwH5Kaiug8-118" edge="1">
          <mxGeometry width="50" height="50" relative="1" as="geometry">
            <mxPoint x="40" y="576" as="sourcePoint" />
            <mxPoint x="190" y="486" as="targetPoint" />
          </mxGeometry>
        </mxCell>
        <mxCell id="VOFbCw_IlXWwH5Kaiug8-134" value="" style="endArrow=blockThin;html=1;rounded=0;fontSize=30;entryX=0.506;entryY=1.044;entryDx=0;entryDy=0;entryPerimeter=0;exitX=0.5;exitY=0;exitDx=0;exitDy=0;endFill=1;" parent="1" source="VOFbCw_IlXWwH5Kaiug8-127" target="VOFbCw_IlXWwH5Kaiug8-126" edge="1">
          <mxGeometry width="50" height="50" relative="1" as="geometry">
            <mxPoint x="40" y="576" as="sourcePoint" />
            <mxPoint x="196.72000000000003" y="481.4279999999999" as="targetPoint" />
          </mxGeometry>
        </mxCell>
        <mxCell id="VOFbCw_IlXWwH5Kaiug8-140" value="" style="endArrow=blockThin;html=1;rounded=0;fontSize=30;entryX=0.499;entryY=0.956;entryDx=0;entryDy=0;entryPerimeter=0;exitX=0.5;exitY=0;exitDx=0;exitDy=0;endFill=1;" parent="1" source="VOFbCw_IlXWwH5Kaiug8-136" target="VOFbCw_IlXWwH5Kaiug8-126" edge="1">
          <mxGeometry width="50" height="50" relative="1" as="geometry">
            <mxPoint x="-1000" y="570" as="sourcePoint" />
            <mxPoint x="-950" y="520" as="targetPoint" />
          </mxGeometry>
        </mxCell>
        <mxCell id="VOFbCw_IlXWwH5Kaiug8-190" value="" style="endArrow=blockThin;html=1;rounded=0;fontSize=30;entryX=0.531;entryY=0.974;entryDx=0;entryDy=0;entryPerimeter=0;exitX=0.5;exitY=0;exitDx=0;exitDy=0;endFill=1;" parent="1" source="VOFbCw_IlXWwH5Kaiug8-183" target="VOFbCw_IlXWwH5Kaiug8-9" edge="1">
          <mxGeometry width="50" height="50" relative="1" as="geometry">
            <mxPoint x="-920" y="250" as="sourcePoint" />
            <mxPoint x="-674.7199999999998" y="125.42800000000011" as="targetPoint" />
          </mxGeometry>
        </mxCell>
        <mxCell id="VOFbCw_IlXWwH5Kaiug8-198" value="Range" style="swimlane;fontStyle=1;align=center;verticalAlign=top;childLayout=stackLayout;horizontal=1;startSize=26;horizontalStack=0;resizeParent=1;resizeParentMax=0;resizeLast=0;collapsible=1;marginBottom=0;" parent="1" vertex="1">
          <mxGeometry x="-180" y="386" width="160" height="86" as="geometry" />
        </mxCell>
        <mxCell id="VOFbCw_IlXWwH5Kaiug8-199" value="+ field: type" style="text;strokeColor=none;fillColor=none;align=left;verticalAlign=top;spacingLeft=4;spacingRight=4;overflow=hidden;rotatable=0;points=[[0,0.5],[1,0.5]];portConstraint=eastwest;" parent="VOFbCw_IlXWwH5Kaiug8-198" vertex="1">
          <mxGeometry y="26" width="160" height="26" as="geometry" />
        </mxCell>
        <mxCell id="VOFbCw_IlXWwH5Kaiug8-200" value="" style="line;strokeWidth=1;fillColor=none;align=left;verticalAlign=middle;spacingTop=-1;spacingLeft=3;spacingRight=3;rotatable=0;labelPosition=right;points=[];portConstraint=eastwest;strokeColor=inherit;" parent="VOFbCw_IlXWwH5Kaiug8-198" vertex="1">
          <mxGeometry y="52" width="160" height="8" as="geometry" />
        </mxCell>
        <mxCell id="VOFbCw_IlXWwH5Kaiug8-201" value="+ method(type): type" style="text;strokeColor=none;fillColor=none;align=left;verticalAlign=top;spacingLeft=4;spacingRight=4;overflow=hidden;rotatable=0;points=[[0,0.5],[1,0.5]];portConstraint=eastwest;" parent="VOFbCw_IlXWwH5Kaiug8-198" vertex="1">
          <mxGeometry y="60" width="160" height="26" as="geometry" />
        </mxCell>
        <mxCell id="VOFbCw_IlXWwH5Kaiug8-202" value="" style="endArrow=blockThin;html=1;rounded=0;fontSize=30;entryX=0.549;entryY=1.109;entryDx=0;entryDy=0;entryPerimeter=0;exitX=0.5;exitY=0;exitDx=0;exitDy=0;endFill=1;" parent="1" source="VOFbCw_IlXWwH5Kaiug8-198" target="VOFbCw_IlXWwH5Kaiug8-13" edge="1">
          <mxGeometry width="50" height="50" relative="1" as="geometry">
            <mxPoint x="-1520" y="270" as="sourcePoint" />
            <mxPoint x="-1274.7200000000003" y="145.4280000000001" as="targetPoint" />
          </mxGeometry>
        </mxCell>
        <mxCell id="VOFbCw_IlXWwH5Kaiug8-205" value="" style="rounded=0;whiteSpace=wrap;html=1;labelBackgroundColor=#67AB9F;fontSize=30;" parent="1" vertex="1">
          <mxGeometry x="-2500" y="560" width="120" height="60" as="geometry" />
        </mxCell>
        <mxCell id="VOFbCw_IlXWwH5Kaiug8-227" value="" style="endArrow=blockThin;html=1;rounded=0;fontSize=30;entryX=0.501;entryY=1.154;entryDx=0;entryDy=0;entryPerimeter=0;exitX=0.5;exitY=0;exitDx=0;exitDy=0;endFill=1;" parent="1" source="VOFbCw_IlXWwH5Kaiug8-219" target="VOFbCw_IlXWwH5Kaiug8-13" edge="1">
          <mxGeometry width="50" height="50" relative="1" as="geometry">
            <mxPoint x="-1430.0000000000005" y="816" as="sourcePoint" />
            <mxPoint x="-1250.1600000000003" y="498.85599999999977" as="targetPoint" />
          </mxGeometry>
        </mxCell>
        <mxCell id="VOFbCw_IlXWwH5Kaiug8-228" value="" style="endArrow=blockThin;html=1;rounded=0;fontSize=30;entryX=0.524;entryY=1.199;entryDx=0;entryDy=0;entryPerimeter=0;exitX=0.5;exitY=0;exitDx=0;exitDy=0;endFill=1;" parent="1" source="VOFbCw_IlXWwH5Kaiug8-223" target="VOFbCw_IlXWwH5Kaiug8-13" edge="1">
          <mxGeometry width="50" height="50" relative="1" as="geometry">
            <mxPoint x="-1040.0000000000005" y="816" as="sourcePoint" />
            <mxPoint x="-679.8400000000001" y="130.00400000000013" as="targetPoint" />
          </mxGeometry>
        </mxCell>
        <mxCell id="VOFbCw_IlXWwH5Kaiug8-230" value="SourceName" style="swimlane;fontStyle=1;align=center;verticalAlign=top;childLayout=stackLayout;horizontal=1;startSize=26;horizontalStack=0;resizeParent=1;resizeParentMax=0;resizeLast=0;collapsible=1;marginBottom=0;fillColor=#d5e8d4;strokeColor=#82b366;" parent="1" vertex="1">
          <mxGeometry x="-1220" y="-190" width="160" height="86" as="geometry" />
        </mxCell>
        <mxCell id="VOFbCw_IlXWwH5Kaiug8-231" value="+ field: type" style="text;strokeColor=#82b366;fillColor=#d5e8d4;align=left;verticalAlign=top;spacingLeft=4;spacingRight=4;overflow=hidden;rotatable=0;points=[[0,0.5],[1,0.5]];portConstraint=eastwest;" parent="VOFbCw_IlXWwH5Kaiug8-230" vertex="1">
          <mxGeometry y="26" width="160" height="26" as="geometry" />
        </mxCell>
        <mxCell id="VOFbCw_IlXWwH5Kaiug8-232" value="" style="line;strokeWidth=1;fillColor=#d5e8d4;align=left;verticalAlign=middle;spacingTop=-1;spacingLeft=3;spacingRight=3;rotatable=0;labelPosition=right;points=[];portConstraint=eastwest;strokeColor=#82b366;" parent="VOFbCw_IlXWwH5Kaiug8-230" vertex="1">
          <mxGeometry y="52" width="160" height="8" as="geometry" />
        </mxCell>
        <mxCell id="VOFbCw_IlXWwH5Kaiug8-233" value="+ method(type): type" style="text;strokeColor=#82b366;fillColor=#d5e8d4;align=left;verticalAlign=top;spacingLeft=4;spacingRight=4;overflow=hidden;rotatable=0;points=[[0,0.5],[1,0.5]];portConstraint=eastwest;" parent="VOFbCw_IlXWwH5Kaiug8-230" vertex="1">
          <mxGeometry y="60" width="160" height="26" as="geometry" />
        </mxCell>
        <mxCell id="VOFbCw_IlXWwH5Kaiug8-234" value="Span" style="swimlane;fontStyle=1;align=center;verticalAlign=top;childLayout=stackLayout;horizontal=1;startSize=26;horizontalStack=0;resizeParent=1;resizeParentMax=0;resizeLast=0;collapsible=1;marginBottom=0;fillColor=#d5e8d4;strokeColor=#82b366;" parent="1" vertex="1">
          <mxGeometry x="-1035" y="-190" width="160" height="86" as="geometry" />
        </mxCell>
        <mxCell id="VOFbCw_IlXWwH5Kaiug8-235" value="+ field: type" style="text;strokeColor=#82b366;fillColor=#d5e8d4;align=left;verticalAlign=top;spacingLeft=4;spacingRight=4;overflow=hidden;rotatable=0;points=[[0,0.5],[1,0.5]];portConstraint=eastwest;" parent="VOFbCw_IlXWwH5Kaiug8-234" vertex="1">
          <mxGeometry y="26" width="160" height="26" as="geometry" />
        </mxCell>
        <mxCell id="VOFbCw_IlXWwH5Kaiug8-236" value="" style="line;strokeWidth=1;fillColor=#d5e8d4;align=left;verticalAlign=middle;spacingTop=-1;spacingLeft=3;spacingRight=3;rotatable=0;labelPosition=right;points=[];portConstraint=eastwest;strokeColor=#82b366;" parent="VOFbCw_IlXWwH5Kaiug8-234" vertex="1">
          <mxGeometry y="52" width="160" height="8" as="geometry" />
        </mxCell>
        <mxCell id="VOFbCw_IlXWwH5Kaiug8-237" value="+ method(type): type" style="text;strokeColor=#82b366;fillColor=#d5e8d4;align=left;verticalAlign=top;spacingLeft=4;spacingRight=4;overflow=hidden;rotatable=0;points=[[0,0.5],[1,0.5]];portConstraint=eastwest;" parent="VOFbCw_IlXWwH5Kaiug8-234" vertex="1">
          <mxGeometry y="60" width="160" height="26" as="geometry" />
        </mxCell>
        <mxCell id="VOFbCw_IlXWwH5Kaiug8-238" value="EnvFunc" style="swimlane;fontStyle=1;align=center;verticalAlign=top;childLayout=stackLayout;horizontal=1;startSize=26;horizontalStack=0;resizeParent=1;resizeParentMax=0;resizeLast=0;collapsible=1;marginBottom=0;fillColor=#d5e8d4;strokeColor=#82b366;" parent="1" vertex="1">
          <mxGeometry x="-845" y="-190" width="160" height="86" as="geometry" />
        </mxCell>
        <mxCell id="VOFbCw_IlXWwH5Kaiug8-239" value="+ field: type" style="text;strokeColor=#82b366;fillColor=#d5e8d4;align=left;verticalAlign=top;spacingLeft=4;spacingRight=4;overflow=hidden;rotatable=0;points=[[0,0.5],[1,0.5]];portConstraint=eastwest;" parent="VOFbCw_IlXWwH5Kaiug8-238" vertex="1">
          <mxGeometry y="26" width="160" height="26" as="geometry" />
        </mxCell>
        <mxCell id="VOFbCw_IlXWwH5Kaiug8-240" value="" style="line;strokeWidth=1;fillColor=#d5e8d4;align=left;verticalAlign=middle;spacingTop=-1;spacingLeft=3;spacingRight=3;rotatable=0;labelPosition=right;points=[];portConstraint=eastwest;strokeColor=#82b366;" parent="VOFbCw_IlXWwH5Kaiug8-238" vertex="1">
          <mxGeometry y="52" width="160" height="8" as="geometry" />
        </mxCell>
        <mxCell id="VOFbCw_IlXWwH5Kaiug8-241" value="+ method(type): type" style="text;strokeColor=#82b366;fillColor=#d5e8d4;align=left;verticalAlign=top;spacingLeft=4;spacingRight=4;overflow=hidden;rotatable=0;points=[[0,0.5],[1,0.5]];portConstraint=eastwest;" parent="VOFbCw_IlXWwH5Kaiug8-238" vertex="1">
          <mxGeometry y="60" width="160" height="26" as="geometry" />
        </mxCell>
        <mxCell id="VOFbCw_IlXWwH5Kaiug8-242" value="Extends" style="endArrow=blockThin;endSize=16;endFill=1;html=1;rounded=0;exitX=0.5;exitY=0;exitDx=0;exitDy=0;entryX=0.535;entryY=1.109;entryDx=0;entryDy=0;entryPerimeter=0;" parent="1" source="VOFbCw_IlXWwH5Kaiug8-230" target="VOFbCw_IlXWwH5Kaiug8-9" edge="1">
          <mxGeometry width="160" relative="1" as="geometry">
            <mxPoint x="-540" y="-80" as="sourcePoint" />
            <mxPoint x="-460" y="-370" as="targetPoint" />
          </mxGeometry>
        </mxCell>
        <mxCell id="VOFbCw_IlXWwH5Kaiug8-243" value="Extends" style="endArrow=blockThin;endSize=16;endFill=1;html=1;rounded=0;exitX=0.5;exitY=0;exitDx=0;exitDy=0;entryX=0.483;entryY=1.109;entryDx=0;entryDy=0;entryPerimeter=0;" parent="1" source="VOFbCw_IlXWwH5Kaiug8-234" target="VOFbCw_IlXWwH5Kaiug8-9" edge="1">
          <mxGeometry width="160" relative="1" as="geometry">
            <mxPoint x="-335" y="-76" as="sourcePoint" />
            <mxPoint x="-544.4000000000001" y="-411.16599999999994" as="targetPoint" />
          </mxGeometry>
        </mxCell>
        <mxCell id="VOFbCw_IlXWwH5Kaiug8-244" value="Extends" style="endArrow=blockThin;endSize=16;endFill=1;html=1;rounded=0;exitX=0.5;exitY=0;exitDx=0;exitDy=0;entryX=0.527;entryY=1.199;entryDx=0;entryDy=0;entryPerimeter=0;" parent="1" source="VOFbCw_IlXWwH5Kaiug8-238" target="VOFbCw_IlXWwH5Kaiug8-9" edge="1">
          <mxGeometry width="160" relative="1" as="geometry">
            <mxPoint x="-150" y="-76" as="sourcePoint" />
            <mxPoint x="-552.7200000000003" y="-411.16599999999994" as="targetPoint" />
          </mxGeometry>
        </mxCell>
        <mxCell id="PqH4sLdSHneE05-yX5JM-1" value="relay/ty.py:&lt;br&gt;&lt;ul&gt;&lt;li&gt;is_dynamic&lt;/li&gt;&lt;li&gt;ShapeVar&lt;/li&gt;&lt;li&gt;scalar_type&lt;/li&gt;&lt;/ul&gt;" style="rounded=0;whiteSpace=wrap;html=1;verticalAlign=top;align=left;fillColor=#fff2cc;strokeColor=#d6b656;" vertex="1" parent="1">
          <mxGeometry x="-1500" y="1150" width="530" height="680" as="geometry" />
        </mxCell>
        <mxCell id="PqH4sLdSHneE05-yX5JM-16" value="Use" style="endArrow=open;endSize=12;dashed=1;html=1;rounded=0;exitX=0.5;exitY=0;exitDx=0;exitDy=0;entryX=0.425;entryY=1.001;entryDx=0;entryDy=0;entryPerimeter=0;" edge="1" parent="1" source="PqH4sLdSHneE05-yX5JM-1" target="VOFbCw_IlXWwH5Kaiug8-108">
          <mxGeometry width="160" relative="1" as="geometry">
            <mxPoint x="-180" y="1110" as="sourcePoint" />
            <mxPoint x="-20" y="1110" as="targetPoint" />
          </mxGeometry>
        </mxCell>
        <mxCell id="PqH4sLdSHneE05-yX5JM-19" value="Id" style="swimlane;fontStyle=1;align=center;verticalAlign=top;childLayout=stackLayout;horizontal=1;startSize=26;horizontalStack=0;resizeParent=1;resizeParentMax=0;resizeLast=0;collapsible=1;marginBottom=0;" vertex="1" parent="1">
          <mxGeometry x="-708" y="1221" width="160" height="86" as="geometry" />
        </mxCell>
        <mxCell id="PqH4sLdSHneE05-yX5JM-20" value="+ field: type" style="text;strokeColor=none;fillColor=none;align=left;verticalAlign=top;spacingLeft=4;spacingRight=4;overflow=hidden;rotatable=0;points=[[0,0.5],[1,0.5]];portConstraint=eastwest;" vertex="1" parent="PqH4sLdSHneE05-yX5JM-19">
          <mxGeometry y="26" width="160" height="26" as="geometry" />
        </mxCell>
        <mxCell id="PqH4sLdSHneE05-yX5JM-21" value="" style="line;strokeWidth=1;fillColor=none;align=left;verticalAlign=middle;spacingTop=-1;spacingLeft=3;spacingRight=3;rotatable=0;labelPosition=right;points=[];portConstraint=eastwest;strokeColor=inherit;" vertex="1" parent="PqH4sLdSHneE05-yX5JM-19">
          <mxGeometry y="52" width="160" height="8" as="geometry" />
        </mxCell>
        <mxCell id="PqH4sLdSHneE05-yX5JM-22" value="+ method(type): type" style="text;strokeColor=none;fillColor=none;align=left;verticalAlign=top;spacingLeft=4;spacingRight=4;overflow=hidden;rotatable=0;points=[[0,0.5],[1,0.5]];portConstraint=eastwest;" vertex="1" parent="PqH4sLdSHneE05-yX5JM-19">
          <mxGeometry y="60" width="160" height="26" as="geometry" />
        </mxCell>
        <mxCell id="PqH4sLdSHneE05-yX5JM-24" value="RelayNode" style="swimlane;fontStyle=1;align=left;verticalAlign=top;childLayout=stackLayout;horizontal=1;startSize=26;horizontalStack=0;resizeParent=1;resizeParentMax=0;resizeLast=0;collapsible=1;marginBottom=0;labelBackgroundColor=#FFFFFF;fontSize=18;" vertex="1" parent="1">
          <mxGeometry x="-908" y="1221" width="160" height="34" as="geometry" />
        </mxCell>
        <mxCell id="PqH4sLdSHneE05-yX5JM-28" value="" style="endArrow=block;startArrow=block;endFill=1;startFill=1;html=1;rounded=0;fontSize=18;entryX=0.5;entryY=0;entryDx=0;entryDy=0;" edge="1" parent="1" source="VOFbCw_IlXWwH5Kaiug8-13" target="PqH4sLdSHneE05-yX5JM-24">
          <mxGeometry width="160" relative="1" as="geometry">
            <mxPoint x="-420" y="140" as="sourcePoint" />
            <mxPoint x="-600" y="860" as="targetPoint" />
          </mxGeometry>
        </mxCell>
        <mxCell id="PqH4sLdSHneE05-yX5JM-58" value="" style="endArrow=blockThin;html=1;rounded=0;fontSize=30;exitX=0.5;exitY=0;exitDx=0;exitDy=0;endFill=1;entryX=0.5;entryY=1;entryDx=0;entryDy=0;" edge="1" parent="1" source="PqH4sLdSHneE05-yX5JM-30" target="PqH4sLdSHneE05-yX5JM-24">
          <mxGeometry width="50" height="50" relative="1" as="geometry">
            <mxPoint x="-369.00000000000045" y="1520" as="sourcePoint" />
            <mxPoint x="-530" y="1500" as="targetPoint" />
          </mxGeometry>
        </mxCell>
        <mxCell id="PqH4sLdSHneE05-yX5JM-65" value="" style="endArrow=blockThin;html=1;rounded=0;fontSize=30;endFill=1;exitX=0.5;exitY=0;exitDx=0;exitDy=0;entryX=0.492;entryY=1.026;entryDx=0;entryDy=0;entryPerimeter=0;" edge="1" parent="1" target="VOFbCw_IlXWwH5Kaiug8-139">
          <mxGeometry width="50" height="50" relative="1" as="geometry">
            <mxPoint x="-259" y="1940" as="sourcePoint" />
            <mxPoint x="-725" y="1944" as="targetPoint" />
          </mxGeometry>
        </mxCell>
        <mxCell id="PqH4sLdSHneE05-yX5JM-68" value="" style="endArrow=none;html=1;rounded=0;fontSize=40;fillColor=#e6d0de;gradientColor=#d5739d;strokeColor=#996185;strokeWidth=38;" edge="1" parent="1">
          <mxGeometry width="50" height="50" relative="1" as="geometry">
            <mxPoint x="-1550" y="-280" as="sourcePoint" />
            <mxPoint x="1271" y="-280" as="targetPoint" />
          </mxGeometry>
        </mxCell>
        <mxCell id="PqH4sLdSHneE05-yX5JM-69" value="" style="endArrow=none;html=1;rounded=0;fontSize=40;fillColor=#e6d0de;gradientColor=#d5739d;strokeColor=#996185;strokeWidth=38;" edge="1" parent="1">
          <mxGeometry width="50" height="50" relative="1" as="geometry">
            <mxPoint x="-1490" y="1059" as="sourcePoint" />
            <mxPoint x="2291.3228352864585" y="1059" as="targetPoint" />
          </mxGeometry>
        </mxCell>
        <mxCell id="PqH4sLdSHneE05-yX5JM-78" value="IRModule" style="swimlane;fontStyle=1;align=center;verticalAlign=top;childLayout=stackLayout;horizontal=1;startSize=26;horizontalStack=0;resizeParent=1;resizeParentMax=0;resizeLast=0;collapsible=1;marginBottom=0;labelBackgroundColor=#FFFFFF;fontSize=11;" vertex="1" parent="1">
          <mxGeometry x="-370" y="80" width="260" height="86" as="geometry" />
        </mxCell>
        <mxCell id="PqH4sLdSHneE05-yX5JM-79" value="+ field: type" style="text;strokeColor=none;fillColor=none;align=left;verticalAlign=top;spacingLeft=4;spacingRight=4;overflow=hidden;rotatable=0;points=[[0,0.5],[1,0.5]];portConstraint=eastwest;labelBackgroundColor=#FFFFFF;fontSize=11;" vertex="1" parent="PqH4sLdSHneE05-yX5JM-78">
          <mxGeometry y="26" width="260" height="26" as="geometry" />
        </mxCell>
        <mxCell id="PqH4sLdSHneE05-yX5JM-80" value="" style="line;strokeWidth=1;fillColor=none;align=left;verticalAlign=middle;spacingTop=-1;spacingLeft=3;spacingRight=3;rotatable=0;labelPosition=right;points=[];portConstraint=eastwest;strokeColor=inherit;labelBackgroundColor=#FFFFFF;fontSize=28;" vertex="1" parent="PqH4sLdSHneE05-yX5JM-78">
          <mxGeometry y="52" width="260" height="8" as="geometry" />
        </mxCell>
        <mxCell id="PqH4sLdSHneE05-yX5JM-81" value="+ method(type): type" style="text;strokeColor=none;fillColor=none;align=left;verticalAlign=top;spacingLeft=4;spacingRight=4;overflow=hidden;rotatable=0;points=[[0,0.5],[1,0.5]];portConstraint=eastwest;labelBackgroundColor=#FFFFFF;fontSize=11;" vertex="1" parent="PqH4sLdSHneE05-yX5JM-78">
          <mxGeometry y="60" width="260" height="26" as="geometry" />
        </mxCell>
        <mxCell id="PqH4sLdSHneE05-yX5JM-82" value="" style="endArrow=blockThin;html=1;rounded=0;fontSize=30;exitX=0.5;exitY=0;exitDx=0;exitDy=0;endFill=1;entryX=1;entryY=0.5;entryDx=0;entryDy=0;" edge="1" parent="1" source="PqH4sLdSHneE05-yX5JM-78" target="VOFbCw_IlXWwH5Kaiug8-13">
          <mxGeometry width="50" height="50" relative="1" as="geometry">
            <mxPoint x="160" y="324.83000000000004" as="sourcePoint" />
            <mxPoint x="-600" y="-460" as="targetPoint" />
          </mxGeometry>
        </mxCell>
        <mxCell id="PqH4sLdSHneE05-yX5JM-83" value="ir/op.py" style="rounded=0;whiteSpace=wrap;html=1;labelBackgroundColor=#FFFFFF;fontSize=28;fillColor=#d5e8d4;strokeColor=#82b366;align=left;verticalAlign=top;" vertex="1" parent="1">
          <mxGeometry x="-210" y="810" width="920" height="210" as="geometry" />
        </mxCell>
        <mxCell id="PqH4sLdSHneE05-yX5JM-84" value="Op" style="swimlane;fontStyle=1;align=center;verticalAlign=top;childLayout=stackLayout;horizontal=1;startSize=26;horizontalStack=0;resizeParent=1;resizeParentMax=0;resizeLast=0;collapsible=1;marginBottom=0;" vertex="1" parent="1">
          <mxGeometry x="-100" y="908.86" width="160" height="86" as="geometry" />
        </mxCell>
        <mxCell id="PqH4sLdSHneE05-yX5JM-85" value="+ field: type" style="text;strokeColor=none;fillColor=none;align=left;verticalAlign=top;spacingLeft=4;spacingRight=4;overflow=hidden;rotatable=0;points=[[0,0.5],[1,0.5]];portConstraint=eastwest;" vertex="1" parent="PqH4sLdSHneE05-yX5JM-84">
          <mxGeometry y="26" width="160" height="26" as="geometry" />
        </mxCell>
        <mxCell id="PqH4sLdSHneE05-yX5JM-86" value="" style="line;strokeWidth=1;fillColor=none;align=left;verticalAlign=middle;spacingTop=-1;spacingLeft=3;spacingRight=3;rotatable=0;labelPosition=right;points=[];portConstraint=eastwest;strokeColor=inherit;" vertex="1" parent="PqH4sLdSHneE05-yX5JM-84">
          <mxGeometry y="52" width="160" height="8" as="geometry" />
        </mxCell>
        <mxCell id="PqH4sLdSHneE05-yX5JM-87" value="+ method(type): type" style="text;strokeColor=none;fillColor=none;align=left;verticalAlign=top;spacingLeft=4;spacingRight=4;overflow=hidden;rotatable=0;points=[[0,0.5],[1,0.5]];portConstraint=eastwest;" vertex="1" parent="PqH4sLdSHneE05-yX5JM-84">
          <mxGeometry y="60" width="160" height="26" as="geometry" />
        </mxCell>
        <mxCell id="PqH4sLdSHneE05-yX5JM-88" value="" style="endArrow=blockThin;html=1;rounded=0;fontSize=30;exitX=0.5;exitY=0;exitDx=0;exitDy=0;endFill=1;" edge="1" parent="1" source="PqH4sLdSHneE05-yX5JM-84">
          <mxGeometry width="50" height="50" relative="1" as="geometry">
            <mxPoint x="35" y="778.86" as="sourcePoint" />
            <mxPoint x="80" y="620" as="targetPoint" />
          </mxGeometry>
        </mxCell>
        <mxCell id="PqH4sLdSHneE05-yX5JM-89" value="&lt;font style=&quot;font-size: 28px;&quot;&gt;ir/transform.py&lt;/font&gt;" style="rounded=0;whiteSpace=wrap;html=1;labelBackgroundColor=#FFFFFF;fontSize=18;fillColor=#d5e8d4;strokeColor=#82b366;verticalAlign=top;align=left;" vertex="1" parent="1">
          <mxGeometry x="-70" y="-220" width="629" height="480" as="geometry" />
        </mxCell>
        <mxCell id="PqH4sLdSHneE05-yX5JM-90" value="PassInfo" style="swimlane;fontStyle=1;align=center;verticalAlign=top;childLayout=stackLayout;horizontal=1;startSize=26;horizontalStack=0;resizeParent=1;resizeParentMax=0;resizeLast=0;collapsible=1;marginBottom=0;" vertex="1" parent="1">
          <mxGeometry x="-42.75999999999999" y="-102.57" width="160" height="86" as="geometry" />
        </mxCell>
        <mxCell id="PqH4sLdSHneE05-yX5JM-91" value="+ field: type" style="text;strokeColor=none;fillColor=none;align=left;verticalAlign=top;spacingLeft=4;spacingRight=4;overflow=hidden;rotatable=0;points=[[0,0.5],[1,0.5]];portConstraint=eastwest;" vertex="1" parent="PqH4sLdSHneE05-yX5JM-90">
          <mxGeometry y="26" width="160" height="26" as="geometry" />
        </mxCell>
        <mxCell id="PqH4sLdSHneE05-yX5JM-92" value="" style="line;strokeWidth=1;fillColor=none;align=left;verticalAlign=middle;spacingTop=-1;spacingLeft=3;spacingRight=3;rotatable=0;labelPosition=right;points=[];portConstraint=eastwest;strokeColor=inherit;" vertex="1" parent="PqH4sLdSHneE05-yX5JM-90">
          <mxGeometry y="52" width="160" height="8" as="geometry" />
        </mxCell>
        <mxCell id="PqH4sLdSHneE05-yX5JM-93" value="+ method(type): type" style="text;strokeColor=none;fillColor=none;align=left;verticalAlign=top;spacingLeft=4;spacingRight=4;overflow=hidden;rotatable=0;points=[[0,0.5],[1,0.5]];portConstraint=eastwest;" vertex="1" parent="PqH4sLdSHneE05-yX5JM-90">
          <mxGeometry y="60" width="160" height="26" as="geometry" />
        </mxCell>
        <mxCell id="PqH4sLdSHneE05-yX5JM-94" value="" style="endArrow=blockThin;html=1;rounded=0;fontSize=30;exitX=0.5;exitY=0;exitDx=0;exitDy=0;entryX=1;entryY=0.5;entryDx=0;entryDy=0;endFill=1;" edge="1" parent="1" source="PqH4sLdSHneE05-yX5JM-90" target="VOFbCw_IlXWwH5Kaiug8-9">
          <mxGeometry width="50" height="50" relative="1" as="geometry">
            <mxPoint x="958.24" y="403.43" as="sourcePoint" />
            <mxPoint x="1101.7600000000004" y="300.00199999999967" as="targetPoint" />
          </mxGeometry>
        </mxCell>
        <mxCell id="PqH4sLdSHneE05-yX5JM-95" value="PassContext" style="swimlane;fontStyle=1;align=center;verticalAlign=top;childLayout=stackLayout;horizontal=1;startSize=26;horizontalStack=0;resizeParent=1;resizeParentMax=0;resizeLast=0;collapsible=1;marginBottom=0;" vertex="1" parent="1">
          <mxGeometry x="119" y="-102.56999999999994" width="160" height="86" as="geometry" />
        </mxCell>
        <mxCell id="PqH4sLdSHneE05-yX5JM-96" value="+ field: type" style="text;strokeColor=none;fillColor=none;align=left;verticalAlign=top;spacingLeft=4;spacingRight=4;overflow=hidden;rotatable=0;points=[[0,0.5],[1,0.5]];portConstraint=eastwest;" vertex="1" parent="PqH4sLdSHneE05-yX5JM-95">
          <mxGeometry y="26" width="160" height="26" as="geometry" />
        </mxCell>
        <mxCell id="PqH4sLdSHneE05-yX5JM-97" value="" style="line;strokeWidth=1;fillColor=none;align=left;verticalAlign=middle;spacingTop=-1;spacingLeft=3;spacingRight=3;rotatable=0;labelPosition=right;points=[];portConstraint=eastwest;strokeColor=inherit;" vertex="1" parent="PqH4sLdSHneE05-yX5JM-95">
          <mxGeometry y="52" width="160" height="8" as="geometry" />
        </mxCell>
        <mxCell id="PqH4sLdSHneE05-yX5JM-98" value="+ method(type): type" style="text;strokeColor=none;fillColor=none;align=left;verticalAlign=top;spacingLeft=4;spacingRight=4;overflow=hidden;rotatable=0;points=[[0,0.5],[1,0.5]];portConstraint=eastwest;" vertex="1" parent="PqH4sLdSHneE05-yX5JM-95">
          <mxGeometry y="60" width="160" height="26" as="geometry" />
        </mxCell>
        <mxCell id="PqH4sLdSHneE05-yX5JM-99" value="" style="endArrow=blockThin;html=1;rounded=0;fontSize=30;exitX=0.5;exitY=0;exitDx=0;exitDy=0;endFill=1;entryX=1;entryY=0.5;entryDx=0;entryDy=0;" edge="1" parent="1" source="PqH4sLdSHneE05-yX5JM-95" target="VOFbCw_IlXWwH5Kaiug8-9">
          <mxGeometry width="50" height="50" relative="1" as="geometry">
            <mxPoint x="968.24" y="573.4300000000001" as="sourcePoint" />
            <mxPoint x="1111.76" y="470.0019999999995" as="targetPoint" />
          </mxGeometry>
        </mxCell>
        <mxCell id="PqH4sLdSHneE05-yX5JM-101" value="Pass" style="swimlane;fontStyle=1;align=center;verticalAlign=top;childLayout=stackLayout;horizontal=1;startSize=26;horizontalStack=0;resizeParent=1;resizeParentMax=0;resizeLast=0;collapsible=1;marginBottom=0;" vertex="1" parent="1">
          <mxGeometry x="280" y="-101.99999999999989" width="160" height="86" as="geometry" />
        </mxCell>
        <mxCell id="PqH4sLdSHneE05-yX5JM-102" value="+ field: type" style="text;strokeColor=none;fillColor=none;align=left;verticalAlign=top;spacingLeft=4;spacingRight=4;overflow=hidden;rotatable=0;points=[[0,0.5],[1,0.5]];portConstraint=eastwest;" vertex="1" parent="PqH4sLdSHneE05-yX5JM-101">
          <mxGeometry y="26" width="160" height="26" as="geometry" />
        </mxCell>
        <mxCell id="PqH4sLdSHneE05-yX5JM-103" value="" style="line;strokeWidth=1;fillColor=none;align=left;verticalAlign=middle;spacingTop=-1;spacingLeft=3;spacingRight=3;rotatable=0;labelPosition=right;points=[];portConstraint=eastwest;strokeColor=inherit;" vertex="1" parent="PqH4sLdSHneE05-yX5JM-101">
          <mxGeometry y="52" width="160" height="8" as="geometry" />
        </mxCell>
        <mxCell id="PqH4sLdSHneE05-yX5JM-104" value="+ method(type): type" style="text;strokeColor=none;fillColor=none;align=left;verticalAlign=top;spacingLeft=4;spacingRight=4;overflow=hidden;rotatable=0;points=[[0,0.5],[1,0.5]];portConstraint=eastwest;" vertex="1" parent="PqH4sLdSHneE05-yX5JM-101">
          <mxGeometry y="60" width="160" height="26" as="geometry" />
        </mxCell>
        <mxCell id="PqH4sLdSHneE05-yX5JM-105" value="" style="endArrow=blockThin;html=1;rounded=0;fontSize=30;exitX=0.5;exitY=0;exitDx=0;exitDy=0;endFill=1;entryX=1;entryY=0.5;entryDx=0;entryDy=0;" edge="1" parent="1" source="PqH4sLdSHneE05-yX5JM-101" target="VOFbCw_IlXWwH5Kaiug8-9">
          <mxGeometry width="50" height="50" relative="1" as="geometry">
            <mxPoint x="984.72" y="746.0000000000001" as="sourcePoint" />
            <mxPoint x="1128.24" y="642.5719999999993" as="targetPoint" />
          </mxGeometry>
        </mxCell>
        <mxCell id="PqH4sLdSHneE05-yX5JM-106" value="ModulePass" style="swimlane;fontStyle=1;align=center;verticalAlign=top;childLayout=stackLayout;horizontal=1;startSize=26;horizontalStack=0;resizeParent=1;resizeParentMax=0;resizeLast=0;collapsible=1;marginBottom=0;" vertex="1" parent="1">
          <mxGeometry x="-41" y="74" width="160" height="86" as="geometry" />
        </mxCell>
        <mxCell id="PqH4sLdSHneE05-yX5JM-107" value="+ field: type" style="text;strokeColor=none;fillColor=none;align=left;verticalAlign=top;spacingLeft=4;spacingRight=4;overflow=hidden;rotatable=0;points=[[0,0.5],[1,0.5]];portConstraint=eastwest;" vertex="1" parent="PqH4sLdSHneE05-yX5JM-106">
          <mxGeometry y="26" width="160" height="26" as="geometry" />
        </mxCell>
        <mxCell id="PqH4sLdSHneE05-yX5JM-108" value="" style="line;strokeWidth=1;fillColor=none;align=left;verticalAlign=middle;spacingTop=-1;spacingLeft=3;spacingRight=3;rotatable=0;labelPosition=right;points=[];portConstraint=eastwest;strokeColor=inherit;" vertex="1" parent="PqH4sLdSHneE05-yX5JM-106">
          <mxGeometry y="52" width="160" height="8" as="geometry" />
        </mxCell>
        <mxCell id="PqH4sLdSHneE05-yX5JM-109" value="+ method(type): type" style="text;strokeColor=none;fillColor=none;align=left;verticalAlign=top;spacingLeft=4;spacingRight=4;overflow=hidden;rotatable=0;points=[[0,0.5],[1,0.5]];portConstraint=eastwest;" vertex="1" parent="PqH4sLdSHneE05-yX5JM-106">
          <mxGeometry y="60" width="160" height="26" as="geometry" />
        </mxCell>
        <mxCell id="PqH4sLdSHneE05-yX5JM-110" value="" style="endArrow=blockThin;html=1;rounded=0;fontSize=30;exitX=0.5;exitY=0;exitDx=0;exitDy=0;entryX=0.46;entryY=1.265;entryDx=0;entryDy=0;entryPerimeter=0;endFill=1;" edge="1" parent="1" source="PqH4sLdSHneE05-yX5JM-106" target="PqH4sLdSHneE05-yX5JM-104">
          <mxGeometry width="50" height="50" relative="1" as="geometry">
            <mxPoint x="-164.51999999999998" y="464.71000000000004" as="sourcePoint" />
            <mxPoint x="-21.000000000000455" y="361.28199999999947" as="targetPoint" />
          </mxGeometry>
        </mxCell>
        <mxCell id="PqH4sLdSHneE05-yX5JM-112" value="Sequential" style="swimlane;fontStyle=1;align=center;verticalAlign=top;childLayout=stackLayout;horizontal=1;startSize=26;horizontalStack=0;resizeParent=1;resizeParentMax=0;resizeLast=0;collapsible=1;marginBottom=0;" vertex="1" parent="1">
          <mxGeometry x="129" y="74" width="160" height="86" as="geometry" />
        </mxCell>
        <mxCell id="PqH4sLdSHneE05-yX5JM-113" value="+ field: type" style="text;strokeColor=none;fillColor=none;align=left;verticalAlign=top;spacingLeft=4;spacingRight=4;overflow=hidden;rotatable=0;points=[[0,0.5],[1,0.5]];portConstraint=eastwest;" vertex="1" parent="PqH4sLdSHneE05-yX5JM-112">
          <mxGeometry y="26" width="160" height="26" as="geometry" />
        </mxCell>
        <mxCell id="PqH4sLdSHneE05-yX5JM-114" value="" style="line;strokeWidth=1;fillColor=none;align=left;verticalAlign=middle;spacingTop=-1;spacingLeft=3;spacingRight=3;rotatable=0;labelPosition=right;points=[];portConstraint=eastwest;strokeColor=inherit;" vertex="1" parent="PqH4sLdSHneE05-yX5JM-112">
          <mxGeometry y="52" width="160" height="8" as="geometry" />
        </mxCell>
        <mxCell id="PqH4sLdSHneE05-yX5JM-115" value="+ method(type): type" style="text;strokeColor=none;fillColor=none;align=left;verticalAlign=top;spacingLeft=4;spacingRight=4;overflow=hidden;rotatable=0;points=[[0,0.5],[1,0.5]];portConstraint=eastwest;" vertex="1" parent="PqH4sLdSHneE05-yX5JM-112">
          <mxGeometry y="60" width="160" height="26" as="geometry" />
        </mxCell>
        <mxCell id="PqH4sLdSHneE05-yX5JM-116" value="" style="endArrow=blockThin;html=1;rounded=0;fontSize=30;exitX=0.5;exitY=0;exitDx=0;exitDy=0;entryX=0.482;entryY=1.239;entryDx=0;entryDy=0;entryPerimeter=0;endFill=1;" edge="1" parent="1" source="PqH4sLdSHneE05-yX5JM-112" target="PqH4sLdSHneE05-yX5JM-104">
          <mxGeometry width="50" height="50" relative="1" as="geometry">
            <mxPoint x="5.480000000000018" y="464.71000000000004" as="sourcePoint" />
            <mxPoint x="523.5999999999995" y="-9.110000000000127" as="targetPoint" />
          </mxGeometry>
        </mxCell>
        <mxCell id="PqH4sLdSHneE05-yX5JM-117" value="" style="group" vertex="1" connectable="0" parent="1">
          <mxGeometry x="-1510" y="1910" width="960" height="510" as="geometry" />
        </mxCell>
        <mxCell id="PqH4sLdSHneE05-yX5JM-29" value="relay/adt.py" style="rounded=0;whiteSpace=wrap;html=1;labelBackgroundColor=#FFFFFF;fontSize=18;align=left;verticalAlign=top;fillColor=#fff2cc;strokeColor=#d6b656;" vertex="1" parent="PqH4sLdSHneE05-yX5JM-117">
          <mxGeometry width="960" height="510" as="geometry" />
        </mxCell>
        <mxCell id="PqH4sLdSHneE05-yX5JM-30" value="Pattern" style="swimlane;fontStyle=1;align=center;verticalAlign=top;childLayout=stackLayout;horizontal=1;startSize=26;horizontalStack=0;resizeParent=1;resizeParentMax=0;resizeLast=0;collapsible=1;marginBottom=0;labelBackgroundColor=#FFFFFF;fontSize=18;fillColor=#fff2cc;strokeColor=#d6b656;" vertex="1" parent="PqH4sLdSHneE05-yX5JM-117">
          <mxGeometry x="1" y="56" width="130" height="86" as="geometry" />
        </mxCell>
        <mxCell id="PqH4sLdSHneE05-yX5JM-31" value="+ field: type" style="text;strokeColor=#d6b656;fillColor=#fff2cc;align=left;verticalAlign=top;spacingLeft=4;spacingRight=4;overflow=hidden;rotatable=0;points=[[0,0.5],[1,0.5]];portConstraint=eastwest;labelBackgroundColor=#FFFFFF;fontSize=18;" vertex="1" parent="PqH4sLdSHneE05-yX5JM-30">
          <mxGeometry y="26" width="130" height="26" as="geometry" />
        </mxCell>
        <mxCell id="PqH4sLdSHneE05-yX5JM-32" value="" style="line;strokeWidth=1;fillColor=#fff2cc;align=left;verticalAlign=middle;spacingTop=-1;spacingLeft=3;spacingRight=3;rotatable=0;labelPosition=right;points=[];portConstraint=eastwest;strokeColor=#d6b656;labelBackgroundColor=#FFFFFF;fontSize=18;" vertex="1" parent="PqH4sLdSHneE05-yX5JM-30">
          <mxGeometry y="52" width="130" height="8" as="geometry" />
        </mxCell>
        <mxCell id="PqH4sLdSHneE05-yX5JM-33" value="+ method(type): type" style="text;strokeColor=#d6b656;fillColor=#fff2cc;align=left;verticalAlign=top;spacingLeft=4;spacingRight=4;overflow=hidden;rotatable=0;points=[[0,0.5],[1,0.5]];portConstraint=eastwest;labelBackgroundColor=#FFFFFF;fontSize=18;" vertex="1" parent="PqH4sLdSHneE05-yX5JM-30">
          <mxGeometry y="60" width="130" height="26" as="geometry" />
        </mxCell>
        <mxCell id="PqH4sLdSHneE05-yX5JM-34" value="PatternWildcard" style="swimlane;fontStyle=1;align=center;verticalAlign=top;childLayout=stackLayout;horizontal=1;startSize=26;horizontalStack=0;resizeParent=1;resizeParentMax=0;resizeLast=0;collapsible=1;marginBottom=0;labelBackgroundColor=#FFFFFF;fontSize=18;fillColor=#fff2cc;strokeColor=#d6b656;" vertex="1" parent="PqH4sLdSHneE05-yX5JM-117">
          <mxGeometry x="1" y="176" width="130" height="86" as="geometry" />
        </mxCell>
        <mxCell id="PqH4sLdSHneE05-yX5JM-35" value="+ field: type" style="text;strokeColor=#d6b656;fillColor=#fff2cc;align=left;verticalAlign=top;spacingLeft=4;spacingRight=4;overflow=hidden;rotatable=0;points=[[0,0.5],[1,0.5]];portConstraint=eastwest;labelBackgroundColor=#FFFFFF;fontSize=18;" vertex="1" parent="PqH4sLdSHneE05-yX5JM-34">
          <mxGeometry y="26" width="130" height="26" as="geometry" />
        </mxCell>
        <mxCell id="PqH4sLdSHneE05-yX5JM-36" value="" style="line;strokeWidth=1;fillColor=#fff2cc;align=left;verticalAlign=middle;spacingTop=-1;spacingLeft=3;spacingRight=3;rotatable=0;labelPosition=right;points=[];portConstraint=eastwest;strokeColor=#d6b656;labelBackgroundColor=#FFFFFF;fontSize=18;" vertex="1" parent="PqH4sLdSHneE05-yX5JM-34">
          <mxGeometry y="52" width="130" height="8" as="geometry" />
        </mxCell>
        <mxCell id="PqH4sLdSHneE05-yX5JM-37" value="+ method(type): type" style="text;strokeColor=#d6b656;fillColor=#fff2cc;align=left;verticalAlign=top;spacingLeft=4;spacingRight=4;overflow=hidden;rotatable=0;points=[[0,0.5],[1,0.5]];portConstraint=eastwest;labelBackgroundColor=#FFFFFF;fontSize=18;" vertex="1" parent="PqH4sLdSHneE05-yX5JM-34">
          <mxGeometry y="60" width="130" height="26" as="geometry" />
        </mxCell>
        <mxCell id="PqH4sLdSHneE05-yX5JM-38" value="PatternVar" style="swimlane;fontStyle=1;align=center;verticalAlign=top;childLayout=stackLayout;horizontal=1;startSize=26;horizontalStack=0;resizeParent=1;resizeParentMax=0;resizeLast=0;collapsible=1;marginBottom=0;labelBackgroundColor=#FFFFFF;fontSize=18;fillColor=#fff2cc;strokeColor=#d6b656;" vertex="1" parent="PqH4sLdSHneE05-yX5JM-117">
          <mxGeometry x="151" y="176" width="120" height="86" as="geometry" />
        </mxCell>
        <mxCell id="PqH4sLdSHneE05-yX5JM-39" value="+ field: type" style="text;strokeColor=#d6b656;fillColor=#fff2cc;align=left;verticalAlign=top;spacingLeft=4;spacingRight=4;overflow=hidden;rotatable=0;points=[[0,0.5],[1,0.5]];portConstraint=eastwest;labelBackgroundColor=#FFFFFF;fontSize=18;" vertex="1" parent="PqH4sLdSHneE05-yX5JM-38">
          <mxGeometry y="26" width="120" height="26" as="geometry" />
        </mxCell>
        <mxCell id="PqH4sLdSHneE05-yX5JM-40" value="" style="line;strokeWidth=1;fillColor=#fff2cc;align=left;verticalAlign=middle;spacingTop=-1;spacingLeft=3;spacingRight=3;rotatable=0;labelPosition=right;points=[];portConstraint=eastwest;strokeColor=#d6b656;labelBackgroundColor=#FFFFFF;fontSize=18;" vertex="1" parent="PqH4sLdSHneE05-yX5JM-38">
          <mxGeometry y="52" width="120" height="8" as="geometry" />
        </mxCell>
        <mxCell id="PqH4sLdSHneE05-yX5JM-41" value="+ method(type): type" style="text;strokeColor=#d6b656;fillColor=#fff2cc;align=left;verticalAlign=top;spacingLeft=4;spacingRight=4;overflow=hidden;rotatable=0;points=[[0,0.5],[1,0.5]];portConstraint=eastwest;labelBackgroundColor=#FFFFFF;fontSize=18;" vertex="1" parent="PqH4sLdSHneE05-yX5JM-38">
          <mxGeometry y="60" width="120" height="26" as="geometry" />
        </mxCell>
        <mxCell id="PqH4sLdSHneE05-yX5JM-42" value="PatternConstructor" style="swimlane;fontStyle=1;align=center;verticalAlign=top;childLayout=stackLayout;horizontal=1;startSize=26;horizontalStack=0;resizeParent=1;resizeParentMax=0;resizeLast=0;collapsible=1;marginBottom=0;labelBackgroundColor=#FFFFFF;fontSize=18;fillColor=#fff2cc;strokeColor=#d6b656;" vertex="1" parent="PqH4sLdSHneE05-yX5JM-117">
          <mxGeometry x="291" y="176" width="150" height="86" as="geometry" />
        </mxCell>
        <mxCell id="PqH4sLdSHneE05-yX5JM-43" value="+ field: type" style="text;strokeColor=#d6b656;fillColor=#fff2cc;align=left;verticalAlign=top;spacingLeft=4;spacingRight=4;overflow=hidden;rotatable=0;points=[[0,0.5],[1,0.5]];portConstraint=eastwest;labelBackgroundColor=#FFFFFF;fontSize=18;" vertex="1" parent="PqH4sLdSHneE05-yX5JM-42">
          <mxGeometry y="26" width="150" height="26" as="geometry" />
        </mxCell>
        <mxCell id="PqH4sLdSHneE05-yX5JM-44" value="" style="line;strokeWidth=1;fillColor=#fff2cc;align=left;verticalAlign=middle;spacingTop=-1;spacingLeft=3;spacingRight=3;rotatable=0;labelPosition=right;points=[];portConstraint=eastwest;strokeColor=#d6b656;labelBackgroundColor=#FFFFFF;fontSize=18;" vertex="1" parent="PqH4sLdSHneE05-yX5JM-42">
          <mxGeometry y="52" width="150" height="8" as="geometry" />
        </mxCell>
        <mxCell id="PqH4sLdSHneE05-yX5JM-45" value="+ method(type): type" style="text;strokeColor=#d6b656;fillColor=#fff2cc;align=left;verticalAlign=top;spacingLeft=4;spacingRight=4;overflow=hidden;rotatable=0;points=[[0,0.5],[1,0.5]];portConstraint=eastwest;labelBackgroundColor=#FFFFFF;fontSize=18;" vertex="1" parent="PqH4sLdSHneE05-yX5JM-42">
          <mxGeometry y="60" width="150" height="26" as="geometry" />
        </mxCell>
        <mxCell id="PqH4sLdSHneE05-yX5JM-46" value="PatternTuple" style="swimlane;fontStyle=1;align=center;verticalAlign=top;childLayout=stackLayout;horizontal=1;startSize=26;horizontalStack=0;resizeParent=1;resizeParentMax=0;resizeLast=0;collapsible=1;marginBottom=0;labelBackgroundColor=#FFFFFF;fontSize=18;fillColor=#fff2cc;strokeColor=#d6b656;" vertex="1" parent="PqH4sLdSHneE05-yX5JM-117">
          <mxGeometry x="451" y="176" width="150" height="86" as="geometry" />
        </mxCell>
        <mxCell id="PqH4sLdSHneE05-yX5JM-47" value="+ field: type" style="text;strokeColor=#d6b656;fillColor=#fff2cc;align=left;verticalAlign=top;spacingLeft=4;spacingRight=4;overflow=hidden;rotatable=0;points=[[0,0.5],[1,0.5]];portConstraint=eastwest;labelBackgroundColor=#FFFFFF;fontSize=18;" vertex="1" parent="PqH4sLdSHneE05-yX5JM-46">
          <mxGeometry y="26" width="150" height="26" as="geometry" />
        </mxCell>
        <mxCell id="PqH4sLdSHneE05-yX5JM-48" value="" style="line;strokeWidth=1;fillColor=#fff2cc;align=left;verticalAlign=middle;spacingTop=-1;spacingLeft=3;spacingRight=3;rotatable=0;labelPosition=right;points=[];portConstraint=eastwest;strokeColor=#d6b656;labelBackgroundColor=#FFFFFF;fontSize=18;" vertex="1" parent="PqH4sLdSHneE05-yX5JM-46">
          <mxGeometry y="52" width="150" height="8" as="geometry" />
        </mxCell>
        <mxCell id="PqH4sLdSHneE05-yX5JM-49" value="+ method(type): type" style="text;strokeColor=#d6b656;fillColor=#fff2cc;align=left;verticalAlign=top;spacingLeft=4;spacingRight=4;overflow=hidden;rotatable=0;points=[[0,0.5],[1,0.5]];portConstraint=eastwest;labelBackgroundColor=#FFFFFF;fontSize=18;" vertex="1" parent="PqH4sLdSHneE05-yX5JM-46">
          <mxGeometry y="60" width="150" height="26" as="geometry" />
        </mxCell>
        <mxCell id="PqH4sLdSHneE05-yX5JM-50" value="Clause" style="swimlane;fontStyle=1;align=center;verticalAlign=top;childLayout=stackLayout;horizontal=1;startSize=26;horizontalStack=0;resizeParent=1;resizeParentMax=0;resizeLast=0;collapsible=1;marginBottom=0;labelBackgroundColor=#FFFFFF;fontSize=18;fillColor=#fff2cc;strokeColor=#d6b656;" vertex="1" parent="PqH4sLdSHneE05-yX5JM-117">
          <mxGeometry x="621" y="176" width="150" height="86" as="geometry" />
        </mxCell>
        <mxCell id="PqH4sLdSHneE05-yX5JM-51" value="+ field: type" style="text;strokeColor=#d6b656;fillColor=#fff2cc;align=left;verticalAlign=top;spacingLeft=4;spacingRight=4;overflow=hidden;rotatable=0;points=[[0,0.5],[1,0.5]];portConstraint=eastwest;labelBackgroundColor=#FFFFFF;fontSize=18;" vertex="1" parent="PqH4sLdSHneE05-yX5JM-50">
          <mxGeometry y="26" width="150" height="26" as="geometry" />
        </mxCell>
        <mxCell id="PqH4sLdSHneE05-yX5JM-52" value="" style="line;strokeWidth=1;fillColor=#fff2cc;align=left;verticalAlign=middle;spacingTop=-1;spacingLeft=3;spacingRight=3;rotatable=0;labelPosition=right;points=[];portConstraint=eastwest;strokeColor=#d6b656;labelBackgroundColor=#FFFFFF;fontSize=18;" vertex="1" parent="PqH4sLdSHneE05-yX5JM-50">
          <mxGeometry y="52" width="150" height="8" as="geometry" />
        </mxCell>
        <mxCell id="PqH4sLdSHneE05-yX5JM-53" value="+ method(type): type" style="text;strokeColor=#d6b656;fillColor=#fff2cc;align=left;verticalAlign=top;spacingLeft=4;spacingRight=4;overflow=hidden;rotatable=0;points=[[0,0.5],[1,0.5]];portConstraint=eastwest;labelBackgroundColor=#FFFFFF;fontSize=18;" vertex="1" parent="PqH4sLdSHneE05-yX5JM-50">
          <mxGeometry y="60" width="150" height="26" as="geometry" />
        </mxCell>
        <mxCell id="PqH4sLdSHneE05-yX5JM-54" value="Match" style="swimlane;fontStyle=1;align=center;verticalAlign=top;childLayout=stackLayout;horizontal=1;startSize=26;horizontalStack=0;resizeParent=1;resizeParentMax=0;resizeLast=0;collapsible=1;marginBottom=0;labelBackgroundColor=#FFFFFF;fontSize=18;fillColor=#fff2cc;strokeColor=#d6b656;" vertex="1" parent="PqH4sLdSHneE05-yX5JM-117">
          <mxGeometry x="621" y="36" width="150" height="86" as="geometry" />
        </mxCell>
        <mxCell id="PqH4sLdSHneE05-yX5JM-55" value="+ field: type" style="text;strokeColor=#d6b656;fillColor=#fff2cc;align=left;verticalAlign=top;spacingLeft=4;spacingRight=4;overflow=hidden;rotatable=0;points=[[0,0.5],[1,0.5]];portConstraint=eastwest;labelBackgroundColor=#FFFFFF;fontSize=18;" vertex="1" parent="PqH4sLdSHneE05-yX5JM-54">
          <mxGeometry y="26" width="150" height="26" as="geometry" />
        </mxCell>
        <mxCell id="PqH4sLdSHneE05-yX5JM-56" value="" style="line;strokeWidth=1;fillColor=#fff2cc;align=left;verticalAlign=middle;spacingTop=-1;spacingLeft=3;spacingRight=3;rotatable=0;labelPosition=right;points=[];portConstraint=eastwest;strokeColor=#d6b656;labelBackgroundColor=#FFFFFF;fontSize=18;" vertex="1" parent="PqH4sLdSHneE05-yX5JM-54">
          <mxGeometry y="52" width="150" height="8" as="geometry" />
        </mxCell>
        <mxCell id="PqH4sLdSHneE05-yX5JM-57" value="+ method(type): type" style="text;strokeColor=#d6b656;fillColor=#fff2cc;align=left;verticalAlign=top;spacingLeft=4;spacingRight=4;overflow=hidden;rotatable=0;points=[[0,0.5],[1,0.5]];portConstraint=eastwest;labelBackgroundColor=#FFFFFF;fontSize=18;" vertex="1" parent="PqH4sLdSHneE05-yX5JM-54">
          <mxGeometry y="60" width="150" height="26" as="geometry" />
        </mxCell>
        <mxCell id="PqH4sLdSHneE05-yX5JM-59" value="" style="endArrow=blockThin;html=1;rounded=0;fontSize=30;endFill=1;entryX=0.493;entryY=1.273;entryDx=0;entryDy=0;entryPerimeter=0;fillColor=#fff2cc;strokeColor=#d6b656;" edge="1" parent="PqH4sLdSHneE05-yX5JM-117" source="PqH4sLdSHneE05-yX5JM-34" target="PqH4sLdSHneE05-yX5JM-33">
          <mxGeometry width="50" height="50" relative="1" as="geometry">
            <mxPoint x="75.99999999999955" y="66" as="sourcePoint" />
            <mxPoint x="140.99999999999955" y="-310" as="targetPoint" />
          </mxGeometry>
        </mxCell>
        <mxCell id="PqH4sLdSHneE05-yX5JM-60" value="" style="endArrow=blockThin;html=1;rounded=0;fontSize=30;endFill=1;entryX=0.519;entryY=1.012;entryDx=0;entryDy=0;entryPerimeter=0;exitX=0.5;exitY=0;exitDx=0;exitDy=0;fillColor=#fff2cc;strokeColor=#d6b656;" edge="1" parent="PqH4sLdSHneE05-yX5JM-117" source="PqH4sLdSHneE05-yX5JM-38" target="PqH4sLdSHneE05-yX5JM-33">
          <mxGeometry width="50" height="50" relative="1" as="geometry">
            <mxPoint x="75.44021630282305" y="186" as="sourcePoint" />
            <mxPoint x="75.08999999999924" y="159.09799999999996" as="targetPoint" />
          </mxGeometry>
        </mxCell>
        <mxCell id="PqH4sLdSHneE05-yX5JM-61" value="" style="endArrow=blockThin;html=1;rounded=0;fontSize=30;endFill=1;entryX=0.475;entryY=1.055;entryDx=0;entryDy=0;entryPerimeter=0;exitX=0.5;exitY=0;exitDx=0;exitDy=0;fillColor=#fff2cc;strokeColor=#d6b656;" edge="1" parent="PqH4sLdSHneE05-yX5JM-117" source="PqH4sLdSHneE05-yX5JM-42" target="PqH4sLdSHneE05-yX5JM-33">
          <mxGeometry width="50" height="50" relative="1" as="geometry">
            <mxPoint x="220.99999999999955" y="186" as="sourcePoint" />
            <mxPoint x="78.46999999999935" y="152.3119999999999" as="targetPoint" />
          </mxGeometry>
        </mxCell>
        <mxCell id="PqH4sLdSHneE05-yX5JM-63" value="" style="endArrow=blockThin;html=1;rounded=0;fontSize=30;endFill=1;entryX=0.528;entryY=1.099;entryDx=0;entryDy=0;entryPerimeter=0;exitX=0.5;exitY=0;exitDx=0;exitDy=0;fillColor=#fff2cc;strokeColor=#d6b656;" edge="1" parent="PqH4sLdSHneE05-yX5JM-117" source="PqH4sLdSHneE05-yX5JM-46" target="PqH4sLdSHneE05-yX5JM-33">
          <mxGeometry width="50" height="50" relative="1" as="geometry">
            <mxPoint x="375.99999999999955" y="186" as="sourcePoint" />
            <mxPoint x="72.74999999999955" y="153.42999999999984" as="targetPoint" />
          </mxGeometry>
        </mxCell>
        <mxCell id="PqH4sLdSHneE05-yX5JM-64" value="" style="endArrow=blockThin;html=1;rounded=0;fontSize=30;endFill=1;entryX=0.475;entryY=1.099;entryDx=0;entryDy=0;entryPerimeter=0;exitX=0.5;exitY=0;exitDx=0;exitDy=0;fillColor=#fff2cc;strokeColor=#d6b656;" edge="1" parent="PqH4sLdSHneE05-yX5JM-117" source="PqH4sLdSHneE05-yX5JM-50" target="PqH4sLdSHneE05-yX5JM-33">
          <mxGeometry width="50" height="50" relative="1" as="geometry">
            <mxPoint x="535.9999999999995" y="186" as="sourcePoint" />
            <mxPoint x="79.63999999999942" y="154.57400000000007" as="targetPoint" />
          </mxGeometry>
        </mxCell>
        <mxCell id="VOFbCw_IlXWwH5Kaiug8-136" value="ExprWithOp" style="swimlane;fontStyle=1;align=center;verticalAlign=top;childLayout=stackLayout;horizontal=1;startSize=26;horizontalStack=0;resizeParent=1;resizeParentMax=0;resizeLast=0;collapsible=1;marginBottom=0;" parent="1" vertex="1">
          <mxGeometry x="-230" y="1175.5" width="160" height="86" as="geometry" />
        </mxCell>
        <mxCell id="VOFbCw_IlXWwH5Kaiug8-137" value="+ field: type" style="text;strokeColor=none;fillColor=none;align=left;verticalAlign=top;spacingLeft=4;spacingRight=4;overflow=hidden;rotatable=0;points=[[0,0.5],[1,0.5]];portConstraint=eastwest;" parent="VOFbCw_IlXWwH5Kaiug8-136" vertex="1">
          <mxGeometry y="26" width="160" height="26" as="geometry" />
        </mxCell>
        <mxCell id="VOFbCw_IlXWwH5Kaiug8-138" value="" style="line;strokeWidth=1;fillColor=none;align=left;verticalAlign=middle;spacingTop=-1;spacingLeft=3;spacingRight=3;rotatable=0;labelPosition=right;points=[];portConstraint=eastwest;strokeColor=inherit;" parent="VOFbCw_IlXWwH5Kaiug8-136" vertex="1">
          <mxGeometry y="52" width="160" height="8" as="geometry" />
        </mxCell>
        <mxCell id="VOFbCw_IlXWwH5Kaiug8-139" value="+ method(type): type" style="text;strokeColor=none;fillColor=none;align=left;verticalAlign=top;spacingLeft=4;spacingRight=4;overflow=hidden;rotatable=0;points=[[0,0.5],[1,0.5]];portConstraint=eastwest;" parent="VOFbCw_IlXWwH5Kaiug8-136" vertex="1">
          <mxGeometry y="60" width="160" height="26" as="geometry" />
        </mxCell>
        <mxCell id="VOFbCw_IlXWwH5Kaiug8-142" value="Call" style="swimlane;fontStyle=1;align=center;verticalAlign=top;childLayout=stackLayout;horizontal=1;startSize=26;horizontalStack=0;resizeParent=1;resizeParentMax=0;resizeLast=0;collapsible=1;marginBottom=0;" parent="1" vertex="1">
          <mxGeometry x="-250" y="1349.5" width="160" height="86" as="geometry" />
        </mxCell>
        <mxCell id="VOFbCw_IlXWwH5Kaiug8-143" value="+ field: type" style="text;strokeColor=none;fillColor=none;align=left;verticalAlign=top;spacingLeft=4;spacingRight=4;overflow=hidden;rotatable=0;points=[[0,0.5],[1,0.5]];portConstraint=eastwest;" parent="VOFbCw_IlXWwH5Kaiug8-142" vertex="1">
          <mxGeometry y="26" width="160" height="26" as="geometry" />
        </mxCell>
        <mxCell id="VOFbCw_IlXWwH5Kaiug8-144" value="" style="line;strokeWidth=1;fillColor=none;align=left;verticalAlign=middle;spacingTop=-1;spacingLeft=3;spacingRight=3;rotatable=0;labelPosition=right;points=[];portConstraint=eastwest;strokeColor=inherit;" parent="VOFbCw_IlXWwH5Kaiug8-142" vertex="1">
          <mxGeometry y="52" width="160" height="8" as="geometry" />
        </mxCell>
        <mxCell id="VOFbCw_IlXWwH5Kaiug8-145" value="+ method(type): type" style="text;strokeColor=none;fillColor=none;align=left;verticalAlign=top;spacingLeft=4;spacingRight=4;overflow=hidden;rotatable=0;points=[[0,0.5],[1,0.5]];portConstraint=eastwest;" parent="VOFbCw_IlXWwH5Kaiug8-142" vertex="1">
          <mxGeometry y="60" width="160" height="26" as="geometry" />
        </mxCell>
        <mxCell id="VOFbCw_IlXWwH5Kaiug8-146" value="" style="endArrow=blockThin;html=1;rounded=0;fontSize=30;entryX=0.5;entryY=1;entryDx=0;entryDy=0;exitX=0.5;exitY=0;exitDx=0;exitDy=0;endFill=1;" parent="1" source="VOFbCw_IlXWwH5Kaiug8-142" target="VOFbCw_IlXWwH5Kaiug8-136" edge="1">
          <mxGeometry width="50" height="50" relative="1" as="geometry">
            <mxPoint x="-100" y="1119.5" as="sourcePoint" />
            <mxPoint x="19.839999999999918" y="1034.356" as="targetPoint" />
          </mxGeometry>
        </mxCell>
        <mxCell id="VOFbCw_IlXWwH5Kaiug8-147" value="Let" style="swimlane;fontStyle=1;align=center;verticalAlign=top;childLayout=stackLayout;horizontal=1;startSize=26;horizontalStack=0;resizeParent=1;resizeParentMax=0;resizeLast=0;collapsible=1;marginBottom=0;" parent="1" vertex="1">
          <mxGeometry x="340" y="1479.5" width="160" height="86" as="geometry" />
        </mxCell>
        <mxCell id="VOFbCw_IlXWwH5Kaiug8-148" value="+ field: type" style="text;strokeColor=none;fillColor=none;align=left;verticalAlign=top;spacingLeft=4;spacingRight=4;overflow=hidden;rotatable=0;points=[[0,0.5],[1,0.5]];portConstraint=eastwest;" parent="VOFbCw_IlXWwH5Kaiug8-147" vertex="1">
          <mxGeometry y="26" width="160" height="26" as="geometry" />
        </mxCell>
        <mxCell id="VOFbCw_IlXWwH5Kaiug8-149" value="" style="line;strokeWidth=1;fillColor=none;align=left;verticalAlign=middle;spacingTop=-1;spacingLeft=3;spacingRight=3;rotatable=0;labelPosition=right;points=[];portConstraint=eastwest;strokeColor=inherit;" parent="VOFbCw_IlXWwH5Kaiug8-147" vertex="1">
          <mxGeometry y="52" width="160" height="8" as="geometry" />
        </mxCell>
        <mxCell id="VOFbCw_IlXWwH5Kaiug8-150" value="+ method(type): type" style="text;strokeColor=none;fillColor=none;align=left;verticalAlign=top;spacingLeft=4;spacingRight=4;overflow=hidden;rotatable=0;points=[[0,0.5],[1,0.5]];portConstraint=eastwest;" parent="VOFbCw_IlXWwH5Kaiug8-147" vertex="1">
          <mxGeometry y="60" width="160" height="26" as="geometry" />
        </mxCell>
        <mxCell id="VOFbCw_IlXWwH5Kaiug8-151" value="" style="endArrow=blockThin;html=1;rounded=0;fontSize=30;entryX=0.492;entryY=1.055;entryDx=0;entryDy=0;exitX=0.5;exitY=0;exitDx=0;exitDy=0;endFill=1;entryPerimeter=0;" parent="1" source="VOFbCw_IlXWwH5Kaiug8-147" target="VOFbCw_IlXWwH5Kaiug8-139" edge="1">
          <mxGeometry width="50" height="50" relative="1" as="geometry">
            <mxPoint x="-95" y="1249.5" as="sourcePoint" />
            <mxPoint x="-100" y="1205.5" as="targetPoint" />
          </mxGeometry>
        </mxCell>
        <mxCell id="VOFbCw_IlXWwH5Kaiug8-152" value="If" style="swimlane;fontStyle=1;align=center;verticalAlign=top;childLayout=stackLayout;horizontal=1;startSize=26;horizontalStack=0;resizeParent=1;resizeParentMax=0;resizeLast=0;collapsible=1;marginBottom=0;" parent="1" vertex="1">
          <mxGeometry x="120" y="1479.5" width="160" height="86" as="geometry" />
        </mxCell>
        <mxCell id="VOFbCw_IlXWwH5Kaiug8-153" value="+ field: type" style="text;strokeColor=none;fillColor=none;align=left;verticalAlign=top;spacingLeft=4;spacingRight=4;overflow=hidden;rotatable=0;points=[[0,0.5],[1,0.5]];portConstraint=eastwest;" parent="VOFbCw_IlXWwH5Kaiug8-152" vertex="1">
          <mxGeometry y="26" width="160" height="26" as="geometry" />
        </mxCell>
        <mxCell id="VOFbCw_IlXWwH5Kaiug8-154" value="" style="line;strokeWidth=1;fillColor=none;align=left;verticalAlign=middle;spacingTop=-1;spacingLeft=3;spacingRight=3;rotatable=0;labelPosition=right;points=[];portConstraint=eastwest;strokeColor=inherit;" parent="VOFbCw_IlXWwH5Kaiug8-152" vertex="1">
          <mxGeometry y="52" width="160" height="8" as="geometry" />
        </mxCell>
        <mxCell id="VOFbCw_IlXWwH5Kaiug8-155" value="+ method(type): type" style="text;strokeColor=none;fillColor=none;align=left;verticalAlign=top;spacingLeft=4;spacingRight=4;overflow=hidden;rotatable=0;points=[[0,0.5],[1,0.5]];portConstraint=eastwest;" parent="VOFbCw_IlXWwH5Kaiug8-152" vertex="1">
          <mxGeometry y="60" width="160" height="26" as="geometry" />
        </mxCell>
        <mxCell id="VOFbCw_IlXWwH5Kaiug8-156" value="" style="endArrow=blockThin;html=1;rounded=0;fontSize=30;entryX=0.5;entryY=1;entryDx=0;entryDy=0;exitX=0.5;exitY=0;exitDx=0;exitDy=0;endFill=1;" parent="1" source="VOFbCw_IlXWwH5Kaiug8-152" target="VOFbCw_IlXWwH5Kaiug8-136" edge="1">
          <mxGeometry width="50" height="50" relative="1" as="geometry">
            <mxPoint x="-300" y="1249.5" as="sourcePoint" />
            <mxPoint x="-101.27999999999997" y="1206.9299999999998" as="targetPoint" />
          </mxGeometry>
        </mxCell>
        <mxCell id="VOFbCw_IlXWwH5Kaiug8-161" value="" style="endArrow=blockThin;html=1;rounded=0;fontSize=30;entryX=0.5;entryY=1;entryDx=0;entryDy=0;exitX=0.5;exitY=0;exitDx=0;exitDy=0;endFill=1;" parent="1" source="VOFbCw_IlXWwH5Kaiug8-157" target="VOFbCw_IlXWwH5Kaiug8-136" edge="1">
          <mxGeometry width="50" height="50" relative="1" as="geometry">
            <mxPoint x="-480" y="1249.5" as="sourcePoint" />
            <mxPoint x="-290" y="1195.5" as="targetPoint" />
          </mxGeometry>
        </mxCell>
        <mxCell id="VOFbCw_IlXWwH5Kaiug8-162" value="RefCreate" style="swimlane;fontStyle=1;align=center;verticalAlign=top;childLayout=stackLayout;horizontal=1;startSize=26;horizontalStack=0;resizeParent=1;resizeParentMax=0;resizeLast=0;collapsible=1;marginBottom=0;" parent="1" vertex="1">
          <mxGeometry x="340" y="1593.5" width="160" height="86" as="geometry" />
        </mxCell>
        <mxCell id="VOFbCw_IlXWwH5Kaiug8-163" value="+ field: type" style="text;strokeColor=none;fillColor=none;align=left;verticalAlign=top;spacingLeft=4;spacingRight=4;overflow=hidden;rotatable=0;points=[[0,0.5],[1,0.5]];portConstraint=eastwest;" parent="VOFbCw_IlXWwH5Kaiug8-162" vertex="1">
          <mxGeometry y="26" width="160" height="26" as="geometry" />
        </mxCell>
        <mxCell id="VOFbCw_IlXWwH5Kaiug8-164" value="" style="line;strokeWidth=1;fillColor=none;align=left;verticalAlign=middle;spacingTop=-1;spacingLeft=3;spacingRight=3;rotatable=0;labelPosition=right;points=[];portConstraint=eastwest;strokeColor=inherit;" parent="VOFbCw_IlXWwH5Kaiug8-162" vertex="1">
          <mxGeometry y="52" width="160" height="8" as="geometry" />
        </mxCell>
        <mxCell id="VOFbCw_IlXWwH5Kaiug8-165" value="+ method(type): type" style="text;strokeColor=none;fillColor=none;align=left;verticalAlign=top;spacingLeft=4;spacingRight=4;overflow=hidden;rotatable=0;points=[[0,0.5],[1,0.5]];portConstraint=eastwest;" parent="VOFbCw_IlXWwH5Kaiug8-162" vertex="1">
          <mxGeometry y="60" width="160" height="26" as="geometry" />
        </mxCell>
        <mxCell id="VOFbCw_IlXWwH5Kaiug8-166" value="" style="endArrow=blockThin;html=1;rounded=0;fontSize=30;entryX=0.542;entryY=1.115;entryDx=0;entryDy=0;exitX=0.5;exitY=0;exitDx=0;exitDy=0;endFill=1;entryPerimeter=0;" parent="1" source="VOFbCw_IlXWwH5Kaiug8-162" target="VOFbCw_IlXWwH5Kaiug8-139" edge="1">
          <mxGeometry width="50" height="50" relative="1" as="geometry">
            <mxPoint x="-718" y="1249.5" as="sourcePoint" />
            <mxPoint x="-348" y="1195.5" as="targetPoint" />
          </mxGeometry>
        </mxCell>
        <mxCell id="VOFbCw_IlXWwH5Kaiug8-167" value="RefCreate" style="swimlane;fontStyle=1;align=center;verticalAlign=top;childLayout=stackLayout;horizontal=1;startSize=26;horizontalStack=0;resizeParent=1;resizeParentMax=0;resizeLast=0;collapsible=1;marginBottom=0;" parent="1" vertex="1">
          <mxGeometry x="130" y="1593.5" width="160" height="86" as="geometry" />
        </mxCell>
        <mxCell id="VOFbCw_IlXWwH5Kaiug8-168" value="+ field: type" style="text;strokeColor=none;fillColor=none;align=left;verticalAlign=top;spacingLeft=4;spacingRight=4;overflow=hidden;rotatable=0;points=[[0,0.5],[1,0.5]];portConstraint=eastwest;" parent="VOFbCw_IlXWwH5Kaiug8-167" vertex="1">
          <mxGeometry y="26" width="160" height="26" as="geometry" />
        </mxCell>
        <mxCell id="VOFbCw_IlXWwH5Kaiug8-169" value="" style="line;strokeWidth=1;fillColor=none;align=left;verticalAlign=middle;spacingTop=-1;spacingLeft=3;spacingRight=3;rotatable=0;labelPosition=right;points=[];portConstraint=eastwest;strokeColor=inherit;" parent="VOFbCw_IlXWwH5Kaiug8-167" vertex="1">
          <mxGeometry y="52" width="160" height="8" as="geometry" />
        </mxCell>
        <mxCell id="VOFbCw_IlXWwH5Kaiug8-170" value="+ method(type): type" style="text;strokeColor=none;fillColor=none;align=left;verticalAlign=top;spacingLeft=4;spacingRight=4;overflow=hidden;rotatable=0;points=[[0,0.5],[1,0.5]];portConstraint=eastwest;" parent="VOFbCw_IlXWwH5Kaiug8-167" vertex="1">
          <mxGeometry y="60" width="160" height="26" as="geometry" />
        </mxCell>
        <mxCell id="VOFbCw_IlXWwH5Kaiug8-171" value="RefRead" style="swimlane;fontStyle=1;align=center;verticalAlign=top;childLayout=stackLayout;horizontal=1;startSize=26;horizontalStack=0;resizeParent=1;resizeParentMax=0;resizeLast=0;collapsible=1;marginBottom=0;" parent="1" vertex="1">
          <mxGeometry x="-80" y="1593.5" width="160" height="94" as="geometry" />
        </mxCell>
        <mxCell id="VOFbCw_IlXWwH5Kaiug8-172" value="+ field: type" style="text;strokeColor=none;fillColor=none;align=left;verticalAlign=top;spacingLeft=4;spacingRight=4;overflow=hidden;rotatable=0;points=[[0,0.5],[1,0.5]];portConstraint=eastwest;" parent="VOFbCw_IlXWwH5Kaiug8-171" vertex="1">
          <mxGeometry y="26" width="160" height="26" as="geometry" />
        </mxCell>
        <mxCell id="VOFbCw_IlXWwH5Kaiug8-173" value="" style="line;strokeWidth=1;fillColor=none;align=left;verticalAlign=middle;spacingTop=-1;spacingLeft=3;spacingRight=3;rotatable=0;labelPosition=right;points=[];portConstraint=eastwest;strokeColor=inherit;" parent="VOFbCw_IlXWwH5Kaiug8-171" vertex="1">
          <mxGeometry y="52" width="160" height="8" as="geometry" />
        </mxCell>
        <mxCell id="VOFbCw_IlXWwH5Kaiug8-174" value="+ method(type): type" style="text;strokeColor=none;fillColor=none;align=left;verticalAlign=top;spacingLeft=4;spacingRight=4;overflow=hidden;rotatable=0;points=[[0,0.5],[1,0.5]];portConstraint=eastwest;" parent="VOFbCw_IlXWwH5Kaiug8-171" vertex="1">
          <mxGeometry y="60" width="160" height="26" as="geometry" />
        </mxCell>
        <mxCell id="VOFbCw_IlXWwH5Kaiug8-217" value="" style="rounded=0;whiteSpace=wrap;html=1;labelBackgroundColor=#67AB9F;fontSize=30;align=left;verticalAlign=top;fillColor=#fff2cc;strokeColor=#d6b656;" parent="VOFbCw_IlXWwH5Kaiug8-171" vertex="1">
          <mxGeometry y="86" width="160" height="8" as="geometry" />
        </mxCell>
        <mxCell id="VOFbCw_IlXWwH5Kaiug8-175" value="RefWrite" style="swimlane;fontStyle=1;align=center;verticalAlign=top;childLayout=stackLayout;horizontal=1;startSize=26;horizontalStack=0;resizeParent=1;resizeParentMax=0;resizeLast=0;collapsible=1;marginBottom=0;" parent="1" vertex="1">
          <mxGeometry x="-260" y="1593.5" width="160" height="86" as="geometry" />
        </mxCell>
        <mxCell id="VOFbCw_IlXWwH5Kaiug8-176" value="+ field: type" style="text;strokeColor=none;fillColor=none;align=left;verticalAlign=top;spacingLeft=4;spacingRight=4;overflow=hidden;rotatable=0;points=[[0,0.5],[1,0.5]];portConstraint=eastwest;" parent="VOFbCw_IlXWwH5Kaiug8-175" vertex="1">
          <mxGeometry y="26" width="160" height="26" as="geometry" />
        </mxCell>
        <mxCell id="VOFbCw_IlXWwH5Kaiug8-177" value="" style="line;strokeWidth=1;fillColor=none;align=left;verticalAlign=middle;spacingTop=-1;spacingLeft=3;spacingRight=3;rotatable=0;labelPosition=right;points=[];portConstraint=eastwest;strokeColor=inherit;" parent="VOFbCw_IlXWwH5Kaiug8-175" vertex="1">
          <mxGeometry y="52" width="160" height="8" as="geometry" />
        </mxCell>
        <mxCell id="VOFbCw_IlXWwH5Kaiug8-178" value="+ method(type): type" style="text;strokeColor=none;fillColor=none;align=left;verticalAlign=top;spacingLeft=4;spacingRight=4;overflow=hidden;rotatable=0;points=[[0,0.5],[1,0.5]];portConstraint=eastwest;" parent="VOFbCw_IlXWwH5Kaiug8-175" vertex="1">
          <mxGeometry y="60" width="160" height="26" as="geometry" />
        </mxCell>
        <mxCell id="VOFbCw_IlXWwH5Kaiug8-179" value="TempExpr" style="swimlane;fontStyle=1;align=center;verticalAlign=top;childLayout=stackLayout;horizontal=1;startSize=26;horizontalStack=0;resizeParent=1;resizeParentMax=0;resizeLast=0;collapsible=1;marginBottom=0;" parent="1" vertex="1">
          <mxGeometry x="-260" y="1719.5" width="160" height="86" as="geometry" />
        </mxCell>
        <mxCell id="VOFbCw_IlXWwH5Kaiug8-180" value="+ field: type" style="text;strokeColor=none;fillColor=none;align=left;verticalAlign=top;spacingLeft=4;spacingRight=4;overflow=hidden;rotatable=0;points=[[0,0.5],[1,0.5]];portConstraint=eastwest;" parent="VOFbCw_IlXWwH5Kaiug8-179" vertex="1">
          <mxGeometry y="26" width="160" height="26" as="geometry" />
        </mxCell>
        <mxCell id="VOFbCw_IlXWwH5Kaiug8-181" value="" style="line;strokeWidth=1;fillColor=none;align=left;verticalAlign=middle;spacingTop=-1;spacingLeft=3;spacingRight=3;rotatable=0;labelPosition=right;points=[];portConstraint=eastwest;strokeColor=inherit;" parent="VOFbCw_IlXWwH5Kaiug8-179" vertex="1">
          <mxGeometry y="52" width="160" height="8" as="geometry" />
        </mxCell>
        <mxCell id="VOFbCw_IlXWwH5Kaiug8-182" value="+ method(type): type" style="text;strokeColor=none;fillColor=none;align=left;verticalAlign=top;spacingLeft=4;spacingRight=4;overflow=hidden;rotatable=0;points=[[0,0.5],[1,0.5]];portConstraint=eastwest;" parent="VOFbCw_IlXWwH5Kaiug8-179" vertex="1">
          <mxGeometry y="60" width="160" height="26" as="geometry" />
        </mxCell>
        <mxCell id="VOFbCw_IlXWwH5Kaiug8-183" value="TupleWrapper" style="swimlane;fontStyle=1;align=center;verticalAlign=top;childLayout=stackLayout;horizontal=1;startSize=26;horizontalStack=0;resizeParent=1;resizeParentMax=0;resizeLast=0;collapsible=1;marginBottom=0;" parent="1" vertex="1">
          <mxGeometry x="-10" y="1175.5" width="160" height="86" as="geometry" />
        </mxCell>
        <mxCell id="VOFbCw_IlXWwH5Kaiug8-184" value="+ field: type" style="text;strokeColor=none;fillColor=none;align=left;verticalAlign=top;spacingLeft=4;spacingRight=4;overflow=hidden;rotatable=0;points=[[0,0.5],[1,0.5]];portConstraint=eastwest;" parent="VOFbCw_IlXWwH5Kaiug8-183" vertex="1">
          <mxGeometry y="26" width="160" height="26" as="geometry" />
        </mxCell>
        <mxCell id="VOFbCw_IlXWwH5Kaiug8-185" value="" style="line;strokeWidth=1;fillColor=none;align=left;verticalAlign=middle;spacingTop=-1;spacingLeft=3;spacingRight=3;rotatable=0;labelPosition=right;points=[];portConstraint=eastwest;strokeColor=inherit;" parent="VOFbCw_IlXWwH5Kaiug8-183" vertex="1">
          <mxGeometry y="52" width="160" height="8" as="geometry" />
        </mxCell>
        <mxCell id="VOFbCw_IlXWwH5Kaiug8-186" value="+ method(type): type" style="text;strokeColor=none;fillColor=none;align=left;verticalAlign=top;spacingLeft=4;spacingRight=4;overflow=hidden;rotatable=0;points=[[0,0.5],[1,0.5]];portConstraint=eastwest;" parent="VOFbCw_IlXWwH5Kaiug8-183" vertex="1">
          <mxGeometry y="60" width="160" height="26" as="geometry" />
        </mxCell>
        <mxCell id="VOFbCw_IlXWwH5Kaiug8-187" value="" style="endArrow=blockThin;html=1;rounded=0;fontSize=30;entryX=0.51;entryY=1.038;entryDx=0;entryDy=0;exitX=0.5;exitY=0;exitDx=0;exitDy=0;endFill=1;entryPerimeter=0;" parent="1" source="VOFbCw_IlXWwH5Kaiug8-167" target="VOFbCw_IlXWwH5Kaiug8-139" edge="1">
          <mxGeometry width="50" height="50" relative="1" as="geometry">
            <mxPoint x="-540" y="1369.5" as="sourcePoint" />
            <mxPoint x="-93.2800000000002" y="1208.4900000000002" as="targetPoint" />
          </mxGeometry>
        </mxCell>
        <mxCell id="VOFbCw_IlXWwH5Kaiug8-189" value="" style="endArrow=blockThin;html=1;rounded=0;fontSize=30;entryX=0.51;entryY=1.071;entryDx=0;entryDy=0;exitX=0.5;exitY=0;exitDx=0;exitDy=0;endFill=1;entryPerimeter=0;" parent="1" source="VOFbCw_IlXWwH5Kaiug8-175" target="VOFbCw_IlXWwH5Kaiug8-139" edge="1">
          <mxGeometry width="50" height="50" relative="1" as="geometry">
            <mxPoint x="-960" y="1369.5" as="sourcePoint" />
            <mxPoint x="-99.19999999999982" y="1208.1779999999999" as="targetPoint" />
          </mxGeometry>
        </mxCell>
        <mxCell id="VOFbCw_IlXWwH5Kaiug8-191" value="" style="endArrow=blockThin;html=1;rounded=0;fontSize=30;entryX=0.495;entryY=1.199;entryDx=0;entryDy=0;endFill=1;entryPerimeter=0;exitX=0.5;exitY=0;exitDx=0;exitDy=0;" parent="1" source="VOFbCw_IlXWwH5Kaiug8-179" target="VOFbCw_IlXWwH5Kaiug8-139" edge="1">
          <mxGeometry width="50" height="50" relative="1" as="geometry">
            <mxPoint x="-1240" y="1299.5" as="sourcePoint" />
            <mxPoint x="-98.39999999999964" y="1207.346" as="targetPoint" />
          </mxGeometry>
        </mxCell>
        <mxCell id="VOFbCw_IlXWwH5Kaiug8-192" value="Constant" style="swimlane;fontStyle=1;align=center;verticalAlign=top;childLayout=stackLayout;horizontal=1;startSize=26;horizontalStack=0;resizeParent=1;resizeParentMax=0;resizeLast=0;collapsible=1;marginBottom=0;" parent="1" vertex="1">
          <mxGeometry x="340" y="1359.5" width="160" height="86" as="geometry" />
        </mxCell>
        <mxCell id="VOFbCw_IlXWwH5Kaiug8-193" value="+ field: type" style="text;strokeColor=none;fillColor=none;align=left;verticalAlign=top;spacingLeft=4;spacingRight=4;overflow=hidden;rotatable=0;points=[[0,0.5],[1,0.5]];portConstraint=eastwest;" parent="VOFbCw_IlXWwH5Kaiug8-192" vertex="1">
          <mxGeometry y="26" width="160" height="26" as="geometry" />
        </mxCell>
        <mxCell id="VOFbCw_IlXWwH5Kaiug8-194" value="" style="line;strokeWidth=1;fillColor=none;align=left;verticalAlign=middle;spacingTop=-1;spacingLeft=3;spacingRight=3;rotatable=0;labelPosition=right;points=[];portConstraint=eastwest;strokeColor=inherit;" parent="VOFbCw_IlXWwH5Kaiug8-192" vertex="1">
          <mxGeometry y="52" width="160" height="8" as="geometry" />
        </mxCell>
        <mxCell id="VOFbCw_IlXWwH5Kaiug8-195" value="+ method(type): type" style="text;strokeColor=none;fillColor=none;align=left;verticalAlign=top;spacingLeft=4;spacingRight=4;overflow=hidden;rotatable=0;points=[[0,0.5],[1,0.5]];portConstraint=eastwest;" parent="VOFbCw_IlXWwH5Kaiug8-192" vertex="1">
          <mxGeometry y="60" width="160" height="26" as="geometry" />
        </mxCell>
        <mxCell id="VOFbCw_IlXWwH5Kaiug8-196" value="" style="endArrow=blockThin;html=1;rounded=0;fontSize=30;entryX=0.487;entryY=1.072;entryDx=0;entryDy=0;exitX=0.5;exitY=0;exitDx=0;exitDy=0;endFill=1;entryPerimeter=0;" parent="1" source="VOFbCw_IlXWwH5Kaiug8-192" target="VOFbCw_IlXWwH5Kaiug8-139" edge="1">
          <mxGeometry width="50" height="50" relative="1" as="geometry">
            <mxPoint x="235" y="1369.4999999999995" as="sourcePoint" />
            <mxPoint x="-100" y="1205.4999999999995" as="targetPoint" />
          </mxGeometry>
        </mxCell>
        <mxCell id="VOFbCw_IlXWwH5Kaiug8-206" value="Tuple" style="swimlane;fontStyle=1;align=center;verticalAlign=top;childLayout=stackLayout;horizontal=1;startSize=26;horizontalStack=0;resizeParent=1;resizeParentMax=0;resizeLast=0;collapsible=1;marginBottom=0;" parent="1" vertex="1">
          <mxGeometry x="130" y="1359.5" width="160" height="86" as="geometry" />
        </mxCell>
        <mxCell id="VOFbCw_IlXWwH5Kaiug8-207" value="+ field: type" style="text;strokeColor=none;fillColor=none;align=left;verticalAlign=top;spacingLeft=4;spacingRight=4;overflow=hidden;rotatable=0;points=[[0,0.5],[1,0.5]];portConstraint=eastwest;" parent="VOFbCw_IlXWwH5Kaiug8-206" vertex="1">
          <mxGeometry y="26" width="160" height="26" as="geometry" />
        </mxCell>
        <mxCell id="VOFbCw_IlXWwH5Kaiug8-208" value="" style="line;strokeWidth=1;fillColor=none;align=left;verticalAlign=middle;spacingTop=-1;spacingLeft=3;spacingRight=3;rotatable=0;labelPosition=right;points=[];portConstraint=eastwest;strokeColor=inherit;" parent="VOFbCw_IlXWwH5Kaiug8-206" vertex="1">
          <mxGeometry y="52" width="160" height="8" as="geometry" />
        </mxCell>
        <mxCell id="VOFbCw_IlXWwH5Kaiug8-209" value="+ method(type): type" style="text;strokeColor=none;fillColor=none;align=left;verticalAlign=top;spacingLeft=4;spacingRight=4;overflow=hidden;rotatable=0;points=[[0,0.5],[1,0.5]];portConstraint=eastwest;" parent="VOFbCw_IlXWwH5Kaiug8-206" vertex="1">
          <mxGeometry y="60" width="160" height="26" as="geometry" />
        </mxCell>
        <mxCell id="VOFbCw_IlXWwH5Kaiug8-210" value="" style="endArrow=blockThin;html=1;rounded=0;fontSize=30;entryX=0.487;entryY=1.059;entryDx=0;entryDy=0;exitX=0.5;exitY=0;exitDx=0;exitDy=0;endFill=1;entryPerimeter=0;" parent="1" source="VOFbCw_IlXWwH5Kaiug8-206" target="VOFbCw_IlXWwH5Kaiug8-139" edge="1">
          <mxGeometry width="50" height="50" relative="1" as="geometry">
            <mxPoint x="429.99999999999955" y="1369.5" as="sourcePoint" />
            <mxPoint x="107.91999999999962" y="1273.3720000000003" as="targetPoint" />
          </mxGeometry>
        </mxCell>
        <mxCell id="VOFbCw_IlXWwH5Kaiug8-211" value="Var" style="swimlane;fontStyle=1;align=center;verticalAlign=top;childLayout=stackLayout;horizontal=1;startSize=26;horizontalStack=0;resizeParent=1;resizeParentMax=0;resizeLast=0;collapsible=1;marginBottom=0;" parent="1" vertex="1">
          <mxGeometry x="-70" y="1349.5" width="160" height="86" as="geometry" />
        </mxCell>
        <mxCell id="VOFbCw_IlXWwH5Kaiug8-212" value="+ field: type" style="text;strokeColor=none;fillColor=none;align=left;verticalAlign=top;spacingLeft=4;spacingRight=4;overflow=hidden;rotatable=0;points=[[0,0.5],[1,0.5]];portConstraint=eastwest;" parent="VOFbCw_IlXWwH5Kaiug8-211" vertex="1">
          <mxGeometry y="26" width="160" height="26" as="geometry" />
        </mxCell>
        <mxCell id="VOFbCw_IlXWwH5Kaiug8-213" value="" style="line;strokeWidth=1;fillColor=none;align=left;verticalAlign=middle;spacingTop=-1;spacingLeft=3;spacingRight=3;rotatable=0;labelPosition=right;points=[];portConstraint=eastwest;strokeColor=inherit;" parent="VOFbCw_IlXWwH5Kaiug8-211" vertex="1">
          <mxGeometry y="52" width="160" height="8" as="geometry" />
        </mxCell>
        <mxCell id="VOFbCw_IlXWwH5Kaiug8-214" value="+ method(type): type" style="text;strokeColor=none;fillColor=none;align=left;verticalAlign=top;spacingLeft=4;spacingRight=4;overflow=hidden;rotatable=0;points=[[0,0.5],[1,0.5]];portConstraint=eastwest;" parent="VOFbCw_IlXWwH5Kaiug8-211" vertex="1">
          <mxGeometry y="60" width="160" height="26" as="geometry" />
        </mxCell>
        <mxCell id="VOFbCw_IlXWwH5Kaiug8-215" value="" style="endArrow=blockThin;html=1;rounded=0;fontSize=30;entryX=0.479;entryY=1.149;entryDx=0;entryDy=0;exitX=0.5;exitY=0;exitDx=0;exitDy=0;endFill=1;entryPerimeter=0;" parent="1" source="VOFbCw_IlXWwH5Kaiug8-211" target="VOFbCw_IlXWwH5Kaiug8-139" edge="1">
          <mxGeometry width="50" height="50" relative="1" as="geometry">
            <mxPoint x="429.99999999999955" y="1369.5" as="sourcePoint" />
            <mxPoint x="107.91999999999962" y="1273.3720000000003" as="targetPoint" />
          </mxGeometry>
        </mxCell>
        <mxCell id="VOFbCw_IlXWwH5Kaiug8-157" value="TupleGetItem" style="swimlane;fontStyle=1;align=center;verticalAlign=top;childLayout=stackLayout;horizontal=1;startSize=26;horizontalStack=0;resizeParent=1;resizeParentMax=0;resizeLast=0;collapsible=1;marginBottom=0;" parent="1" vertex="1">
          <mxGeometry x="-70" y="1479.5" width="160" height="86" as="geometry" />
        </mxCell>
        <mxCell id="VOFbCw_IlXWwH5Kaiug8-158" value="+ field: type" style="text;strokeColor=none;fillColor=none;align=left;verticalAlign=top;spacingLeft=4;spacingRight=4;overflow=hidden;rotatable=0;points=[[0,0.5],[1,0.5]];portConstraint=eastwest;" parent="VOFbCw_IlXWwH5Kaiug8-157" vertex="1">
          <mxGeometry y="26" width="160" height="26" as="geometry" />
        </mxCell>
        <mxCell id="VOFbCw_IlXWwH5Kaiug8-159" value="" style="line;strokeWidth=1;fillColor=none;align=left;verticalAlign=middle;spacingTop=-1;spacingLeft=3;spacingRight=3;rotatable=0;labelPosition=right;points=[];portConstraint=eastwest;strokeColor=inherit;" parent="VOFbCw_IlXWwH5Kaiug8-157" vertex="1">
          <mxGeometry y="52" width="160" height="8" as="geometry" />
        </mxCell>
        <mxCell id="VOFbCw_IlXWwH5Kaiug8-160" value="+ method(type): type" style="text;strokeColor=none;fillColor=none;align=left;verticalAlign=top;spacingLeft=4;spacingRight=4;overflow=hidden;rotatable=0;points=[[0,0.5],[1,0.5]];portConstraint=eastwest;" parent="VOFbCw_IlXWwH5Kaiug8-157" vertex="1">
          <mxGeometry y="60" width="160" height="26" as="geometry" />
        </mxCell>
        <mxCell id="VOFbCw_IlXWwH5Kaiug8-219" value="StorageInfo" style="swimlane;fontStyle=1;align=center;verticalAlign=top;childLayout=stackLayout;horizontal=1;startSize=26;horizontalStack=0;resizeParent=1;resizeParentMax=0;resizeLast=0;collapsible=1;marginBottom=0;" parent="1" vertex="1">
          <mxGeometry x="160" y="1175.5" width="160" height="86" as="geometry" />
        </mxCell>
        <mxCell id="VOFbCw_IlXWwH5Kaiug8-220" value="+ field: type" style="text;strokeColor=none;fillColor=none;align=left;verticalAlign=top;spacingLeft=4;spacingRight=4;overflow=hidden;rotatable=0;points=[[0,0.5],[1,0.5]];portConstraint=eastwest;" parent="VOFbCw_IlXWwH5Kaiug8-219" vertex="1">
          <mxGeometry y="26" width="160" height="26" as="geometry" />
        </mxCell>
        <mxCell id="VOFbCw_IlXWwH5Kaiug8-221" value="" style="line;strokeWidth=1;fillColor=none;align=left;verticalAlign=middle;spacingTop=-1;spacingLeft=3;spacingRight=3;rotatable=0;labelPosition=right;points=[];portConstraint=eastwest;strokeColor=inherit;" parent="VOFbCw_IlXWwH5Kaiug8-219" vertex="1">
          <mxGeometry y="52" width="160" height="8" as="geometry" />
        </mxCell>
        <mxCell id="VOFbCw_IlXWwH5Kaiug8-222" value="+ method(type): type" style="text;strokeColor=none;fillColor=none;align=left;verticalAlign=top;spacingLeft=4;spacingRight=4;overflow=hidden;rotatable=0;points=[[0,0.5],[1,0.5]];portConstraint=eastwest;" parent="VOFbCw_IlXWwH5Kaiug8-219" vertex="1">
          <mxGeometry y="60" width="160" height="26" as="geometry" />
        </mxCell>
        <mxCell id="VOFbCw_IlXWwH5Kaiug8-223" value="StaticMemoryPlan" style="swimlane;fontStyle=1;align=center;verticalAlign=top;childLayout=stackLayout;horizontal=1;startSize=26;horizontalStack=0;resizeParent=1;resizeParentMax=0;resizeLast=0;collapsible=1;marginBottom=0;" parent="1" vertex="1">
          <mxGeometry x="330" y="1175.5" width="160" height="86" as="geometry" />
        </mxCell>
        <mxCell id="VOFbCw_IlXWwH5Kaiug8-224" value="+ field: type" style="text;strokeColor=none;fillColor=none;align=left;verticalAlign=top;spacingLeft=4;spacingRight=4;overflow=hidden;rotatable=0;points=[[0,0.5],[1,0.5]];portConstraint=eastwest;" parent="VOFbCw_IlXWwH5Kaiug8-223" vertex="1">
          <mxGeometry y="26" width="160" height="26" as="geometry" />
        </mxCell>
        <mxCell id="VOFbCw_IlXWwH5Kaiug8-225" value="" style="line;strokeWidth=1;fillColor=none;align=left;verticalAlign=middle;spacingTop=-1;spacingLeft=3;spacingRight=3;rotatable=0;labelPosition=right;points=[];portConstraint=eastwest;strokeColor=inherit;" parent="VOFbCw_IlXWwH5Kaiug8-223" vertex="1">
          <mxGeometry y="52" width="160" height="8" as="geometry" />
        </mxCell>
        <mxCell id="VOFbCw_IlXWwH5Kaiug8-226" value="+ method(type): type" style="text;strokeColor=none;fillColor=none;align=left;verticalAlign=top;spacingLeft=4;spacingRight=4;overflow=hidden;rotatable=0;points=[[0,0.5],[1,0.5]];portConstraint=eastwest;" parent="VOFbCw_IlXWwH5Kaiug8-223" vertex="1">
          <mxGeometry y="60" width="160" height="26" as="geometry" />
        </mxCell>
        <mxCell id="PqH4sLdSHneE05-yX5JM-120" value="" style="endArrow=blockThin;html=1;rounded=0;fontSize=30;entryX=0.479;entryY=1.157;entryDx=0;entryDy=0;exitX=0.5;exitY=0;exitDx=0;exitDy=0;endFill=1;entryPerimeter=0;" edge="1" parent="1" source="VOFbCw_IlXWwH5Kaiug8-171" target="VOFbCw_IlXWwH5Kaiug8-160">
          <mxGeometry width="50" height="50" relative="1" as="geometry">
            <mxPoint x="-170" y="1603.5" as="sourcePoint" />
            <mxPoint x="-138.4000000000001" y="1273.346" as="targetPoint" />
          </mxGeometry>
        </mxCell>
      </root>
    </mxGraphModel>
  </diagram>
</mxfile>
